ply
format ascii 1.0
comment Created by Blender 3.0.1 - www.blender.org
element vertex 534
property float x
property float y
property float z
property float nx
property float ny
property float nz
element face 268
property list uchar uint vertex_indices
end_header
-1.000000 1.000000 0.939475 -1.000000 0.000000 0.000000
-1.000000 -1.000000 0.722860 -1.000000 0.000000 0.000000
-1.000000 -1.000000 0.939475 -1.000000 0.000000 0.000000
-1.000000 1.000000 0.722860 -1.000000 0.000000 0.000000
1.000000 1.000000 0.939475 -0.000000 1.000000 0.000000
-1.000000 1.000000 0.722860 -0.000000 1.000000 0.000000
-1.000000 1.000000 0.939475 -0.000000 1.000000 0.000000
1.000000 1.000000 0.722860 0.000000 1.000000 0.000000
1.000000 -1.000000 0.939475 1.000000 0.000000 0.000000
1.000000 1.000000 0.722860 1.000000 0.000000 0.000000
1.000000 1.000000 0.939475 1.000000 0.000000 0.000000
1.000000 -1.000000 0.722860 1.000000 0.000000 -0.000000
-1.000000 -1.000000 0.939475 -0.000000 -1.000000 -0.000000
1.000000 -1.000000 0.722860 -0.000000 -1.000000 -0.000000
1.000000 -1.000000 0.939475 -0.000000 -1.000000 -0.000000
-1.000000 -1.000000 0.722860 0.000000 -1.000000 0.000000
-1.000000 1.000000 1.383534 -1.000000 0.000000 0.000000
-1.000000 -1.000000 1.166920 -1.000000 0.000000 0.000000
-1.000000 -1.000000 1.383534 -1.000000 0.000000 0.000000
-1.000000 1.000000 1.166920 -1.000000 0.000000 0.000000
1.000000 1.000000 1.383534 -0.000000 1.000000 0.000000
-1.000000 1.000000 1.166920 -0.000000 1.000000 0.000000
-1.000000 1.000000 1.383534 -0.000000 1.000000 0.000000
1.000000 1.000000 1.166920 0.000000 1.000000 0.000000
1.000000 -1.000000 1.383534 1.000000 0.000000 0.000000
1.000000 1.000000 1.166920 1.000000 0.000000 0.000000
1.000000 1.000000 1.383534 1.000000 0.000000 0.000000
1.000000 -1.000000 1.166920 1.000000 0.000000 -0.000000
-1.000000 -1.000000 1.383534 -0.000000 -1.000000 -0.000000
1.000000 -1.000000 1.166920 -0.000000 -1.000000 -0.000000
1.000000 -1.000000 1.383534 -0.000000 -1.000000 -0.000000
-1.000000 -1.000000 1.166920 0.000000 -1.000000 0.000000
-1.000000 1.000000 1.827593 -1.000000 0.000000 0.000000
-1.000000 -1.000000 1.610979 -1.000000 0.000000 0.000000
-1.000000 -1.000000 1.827593 -1.000000 0.000000 0.000000
-1.000000 1.000000 1.610979 -1.000000 0.000000 0.000000
1.000000 1.000000 1.827593 -0.000000 1.000000 0.000000
-1.000000 1.000000 1.610979 -0.000000 1.000000 0.000000
-1.000000 1.000000 1.827593 -0.000000 1.000000 0.000000
1.000000 1.000000 1.610979 0.000000 1.000000 0.000000
1.000000 -1.000000 1.827593 1.000000 0.000000 0.000000
1.000000 1.000000 1.610979 1.000000 0.000000 0.000000
1.000000 1.000000 1.827593 1.000000 0.000000 0.000000
1.000000 -1.000000 1.610979 1.000000 0.000000 -0.000000
-1.000000 -1.000000 1.827593 -0.000000 -1.000000 -0.000000
1.000000 -1.000000 1.610979 -0.000000 -1.000000 -0.000000
1.000000 -1.000000 1.827593 -0.000000 -1.000000 -0.000000
-1.000000 -1.000000 1.610979 0.000000 -1.000000 0.000000
-1.000000 1.000000 2.271653 -1.000000 0.000000 0.000000
-1.000000 -1.000000 2.055038 -1.000000 0.000000 0.000000
-1.000000 -1.000000 2.271653 -1.000000 0.000000 0.000000
-1.000000 1.000000 2.055038 -1.000000 0.000000 0.000000
1.000000 1.000000 2.271653 -0.000000 1.000000 0.000000
-1.000000 1.000000 2.055038 -0.000000 1.000000 0.000000
-1.000000 1.000000 2.271653 -0.000000 1.000000 0.000000
1.000000 1.000000 2.055038 0.000000 1.000000 0.000000
1.000000 -1.000000 2.271653 1.000000 0.000000 0.000000
1.000000 1.000000 2.055038 1.000000 0.000000 0.000000
1.000000 1.000000 2.271653 1.000000 0.000000 0.000000
1.000000 -1.000000 2.055038 1.000000 0.000000 -0.000000
-1.000000 -1.000000 2.271653 -0.000000 -1.000000 -0.000000
1.000000 -1.000000 2.055038 -0.000000 -1.000000 -0.000000
1.000000 -1.000000 2.271653 -0.000000 -1.000000 -0.000000
-1.000000 -1.000000 2.055038 0.000000 -1.000000 0.000000
-1.000000 1.000000 2.715712 -1.000000 0.000000 0.000000
-1.000000 -1.000000 2.499098 -1.000000 0.000000 0.000000
-1.000000 -1.000000 2.715712 -1.000000 0.000000 0.000000
-1.000000 1.000000 2.499098 -1.000000 0.000000 0.000000
1.000000 1.000000 2.715712 -0.000000 1.000000 0.000000
-1.000000 1.000000 2.499098 -0.000000 1.000000 0.000000
-1.000000 1.000000 2.715712 -0.000000 1.000000 0.000000
1.000000 1.000000 2.499098 0.000000 1.000000 0.000000
1.000000 -1.000000 2.715712 1.000000 0.000000 0.000000
1.000000 1.000000 2.499098 1.000000 0.000000 0.000000
1.000000 1.000000 2.715712 1.000000 0.000000 0.000000
1.000000 -1.000000 2.499098 1.000000 0.000000 -0.000000
-1.000000 -1.000000 2.715712 -0.000000 -1.000000 -0.000000
1.000000 -1.000000 2.499098 -0.000000 -1.000000 -0.000000
1.000000 -1.000000 2.715712 -0.000000 -1.000000 -0.000000
-1.000000 -1.000000 2.499098 0.000000 -1.000000 0.000000
-1.000000 1.000000 3.159772 -1.000000 0.000000 0.000000
-1.000000 -1.000000 2.943157 -1.000000 0.000000 0.000000
-1.000000 -1.000000 3.159772 -1.000000 0.000000 0.000000
-1.000000 1.000000 2.943157 -1.000000 0.000000 0.000000
1.000000 1.000000 3.159772 -0.000000 1.000000 0.000000
-1.000000 1.000000 2.943157 -0.000000 1.000000 0.000000
-1.000000 1.000000 3.159772 -0.000000 1.000000 0.000000
1.000000 1.000000 2.943157 0.000000 1.000000 0.000000
1.000000 -1.000000 3.159772 1.000000 0.000000 0.000000
1.000000 1.000000 2.943157 1.000000 0.000000 0.000000
1.000000 1.000000 3.159772 1.000000 0.000000 0.000000
1.000000 -1.000000 2.943157 1.000000 0.000000 -0.000000
-1.000000 -1.000000 3.159772 -0.000000 -1.000000 -0.000000
1.000000 -1.000000 2.943157 -0.000000 -1.000000 -0.000000
1.000000 -1.000000 3.159772 -0.000000 -1.000000 -0.000000
-1.000000 -1.000000 2.943157 0.000000 -1.000000 0.000000
-1.000000 1.000000 3.603831 -1.000000 0.000000 0.000000
-1.000000 -1.000000 3.387217 -1.000000 0.000000 0.000000
-1.000000 -1.000000 3.603831 -1.000000 0.000000 0.000000
-1.000000 1.000000 3.387217 -1.000000 0.000000 0.000000
1.000000 1.000000 3.603831 -0.000000 1.000000 0.000000
-1.000000 1.000000 3.387217 -0.000000 1.000000 0.000000
-1.000000 1.000000 3.603831 -0.000000 1.000000 0.000000
1.000000 1.000000 3.387217 0.000000 1.000000 0.000000
1.000000 -1.000000 3.603831 1.000000 0.000000 0.000000
1.000000 1.000000 3.387217 1.000000 0.000000 0.000000
1.000000 1.000000 3.603831 1.000000 0.000000 0.000000
1.000000 -1.000000 3.387217 1.000000 0.000000 -0.000000
-1.000000 -1.000000 3.603831 -0.000000 -1.000000 -0.000000
1.000000 -1.000000 3.387217 -0.000000 -1.000000 -0.000000
1.000000 -1.000000 3.603831 -0.000000 -1.000000 -0.000000
-1.000000 -1.000000 3.387217 0.000000 -1.000000 0.000000
-1.000000 1.000000 4.047891 -1.000000 0.000000 0.000000
-1.000000 -1.000000 3.831276 -1.000000 0.000000 0.000000
-1.000000 -1.000000 4.047891 -1.000000 0.000000 0.000000
-1.000000 1.000000 3.831276 -1.000000 0.000000 0.000000
1.000000 1.000000 4.047891 -0.000000 1.000000 0.000000
-1.000000 1.000000 3.831276 -0.000000 1.000000 0.000000
-1.000000 1.000000 4.047891 -0.000000 1.000000 0.000000
1.000000 1.000000 3.831276 0.000000 1.000000 0.000000
1.000000 -1.000000 4.047891 1.000000 0.000000 0.000000
1.000000 1.000000 3.831276 1.000000 0.000000 0.000000
1.000000 1.000000 4.047891 1.000000 0.000000 0.000000
1.000000 -1.000000 3.831276 1.000000 0.000000 -0.000000
-1.000000 -1.000000 4.047891 -0.000000 -1.000000 -0.000000
1.000000 -1.000000 3.831276 -0.000000 -1.000000 -0.000000
1.000000 -1.000000 4.047891 -0.000000 -1.000000 -0.000000
-1.000000 -1.000000 3.831276 0.000000 -1.000000 0.000000
-1.000000 1.000000 4.491950 -1.000000 0.000000 0.000000
-1.000000 -1.000000 4.275335 -1.000000 0.000000 0.000000
-1.000000 -1.000000 4.491950 -1.000000 0.000000 0.000000
-1.000000 1.000000 4.275335 -1.000000 0.000000 0.000000
1.000000 1.000000 4.491950 -0.000000 1.000000 0.000000
-1.000000 1.000000 4.275335 -0.000000 1.000000 0.000000
-1.000000 1.000000 4.491950 -0.000000 1.000000 0.000000
1.000000 1.000000 4.275335 0.000000 1.000000 0.000000
1.000000 -1.000000 4.491950 1.000000 0.000000 0.000000
1.000000 1.000000 4.275335 1.000000 0.000000 0.000000
1.000000 1.000000 4.491950 1.000000 0.000000 0.000000
1.000000 -1.000000 4.275335 1.000000 0.000000 -0.000000
-1.000000 -1.000000 4.491950 -0.000000 -1.000000 -0.000000
1.000000 -1.000000 4.275335 -0.000000 -1.000000 -0.000000
1.000000 -1.000000 4.491950 -0.000000 -1.000000 -0.000000
-1.000000 -1.000000 4.275335 0.000000 -1.000000 0.000000
-1.000000 1.000000 4.936009 -1.000000 0.000000 0.000000
-1.000000 -1.000000 4.719395 -1.000000 0.000000 0.000000
-1.000000 -1.000000 4.936009 -1.000000 0.000000 0.000000
-1.000000 1.000000 4.719395 -1.000000 0.000000 0.000000
1.000000 1.000000 4.936009 -0.000000 1.000000 0.000000
-1.000000 1.000000 4.719395 -0.000000 1.000000 0.000000
-1.000000 1.000000 4.936009 -0.000000 1.000000 0.000000
1.000000 1.000000 4.719395 0.000000 1.000000 0.000000
1.000000 -1.000000 4.936009 1.000000 0.000000 0.000000
1.000000 1.000000 4.719395 1.000000 0.000000 0.000000
1.000000 1.000000 4.936009 1.000000 0.000000 0.000000
1.000000 -1.000000 4.719395 1.000000 0.000000 -0.000000
-1.000000 -1.000000 4.936009 -0.000000 -1.000000 -0.000000
1.000000 -1.000000 4.719395 -0.000000 -1.000000 -0.000000
1.000000 -1.000000 4.936009 -0.000000 -1.000000 -0.000000
-1.000000 -1.000000 4.719395 0.000000 -1.000000 0.000000
-1.000000 1.000000 5.380069 -1.000000 0.000000 0.000000
-1.000000 -1.000000 5.163455 -1.000000 0.000000 0.000000
-1.000000 -1.000000 5.380069 -1.000000 0.000000 0.000000
-1.000000 1.000000 5.163455 -1.000000 0.000000 0.000000
1.000000 1.000000 5.380069 -0.000000 1.000000 0.000000
-1.000000 1.000000 5.163455 -0.000000 1.000000 0.000000
-1.000000 1.000000 5.380069 -0.000000 1.000000 0.000000
1.000000 1.000000 5.163455 0.000000 1.000000 0.000000
1.000000 -1.000000 5.380069 1.000000 0.000000 0.000000
1.000000 1.000000 5.163455 1.000000 0.000000 0.000000
1.000000 1.000000 5.380069 1.000000 0.000000 0.000000
1.000000 -1.000000 5.163455 1.000000 0.000000 -0.000000
-1.000000 -1.000000 5.380069 -0.000000 -1.000000 -0.000000
1.000000 -1.000000 5.163455 -0.000000 -1.000000 -0.000000
1.000000 -1.000000 5.380069 -0.000000 -1.000000 -0.000000
-1.000000 -1.000000 5.163455 0.000000 -1.000000 0.000000
-1.000000 1.000000 5.824128 -1.000000 0.000000 0.000000
-1.000000 -1.000000 5.607514 -1.000000 0.000000 0.000000
-1.000000 -1.000000 5.824128 -1.000000 0.000000 0.000000
-1.000000 1.000000 5.607514 -1.000000 0.000000 0.000000
1.000000 1.000000 5.824128 -0.000000 1.000000 0.000000
-1.000000 1.000000 5.607514 -0.000000 1.000000 0.000000
-1.000000 1.000000 5.824128 -0.000000 1.000000 0.000000
1.000000 1.000000 5.607514 0.000000 1.000000 0.000000
1.000000 -1.000000 5.824128 1.000000 0.000000 0.000000
1.000000 1.000000 5.607514 1.000000 0.000000 0.000000
1.000000 1.000000 5.824128 1.000000 0.000000 0.000000
1.000000 -1.000000 5.607514 1.000000 0.000000 -0.000000
-1.000000 -1.000000 5.824128 -0.000000 -1.000000 -0.000000
1.000000 -1.000000 5.607514 -0.000000 -1.000000 -0.000000
1.000000 -1.000000 5.824128 -0.000000 -1.000000 -0.000000
-1.000000 -1.000000 5.607514 0.000000 -1.000000 0.000000
-1.000000 1.000000 6.268188 -1.000000 0.000000 0.000000
-1.000000 -1.000000 6.051573 -1.000000 0.000000 0.000000
-1.000000 -1.000000 6.268188 -1.000000 0.000000 0.000000
-1.000000 1.000000 6.051573 -1.000000 0.000000 0.000000
1.000000 1.000000 6.268188 -0.000000 1.000000 0.000000
-1.000000 1.000000 6.051573 -0.000000 1.000000 0.000000
-1.000000 1.000000 6.268188 -0.000000 1.000000 0.000000
1.000000 1.000000 6.051573 0.000000 1.000000 0.000000
1.000000 -1.000000 6.268188 1.000000 0.000000 0.000000
1.000000 1.000000 6.051573 1.000000 0.000000 0.000000
1.000000 1.000000 6.268188 1.000000 0.000000 0.000000
1.000000 -1.000000 6.051573 1.000000 0.000000 -0.000000
-1.000000 -1.000000 6.268188 -0.000000 -1.000000 -0.000000
1.000000 -1.000000 6.051573 -0.000000 -1.000000 -0.000000
1.000000 -1.000000 6.268188 -0.000000 -1.000000 -0.000000
-1.000000 -1.000000 6.051573 0.000000 -1.000000 0.000000
-1.000000 1.000000 6.712247 -1.000000 0.000000 0.000000
-1.000000 -1.000000 6.495633 -1.000000 0.000000 0.000000
-1.000000 -1.000000 6.712247 -1.000000 0.000000 0.000000
-1.000000 1.000000 6.495633 -1.000000 0.000000 0.000000
1.000000 1.000000 6.712247 -0.000000 1.000000 0.000000
-1.000000 1.000000 6.495633 -0.000000 1.000000 0.000000
-1.000000 1.000000 6.712247 -0.000000 1.000000 0.000000
1.000000 1.000000 6.495633 0.000000 1.000000 0.000000
1.000000 -1.000000 6.712247 1.000000 0.000000 0.000000
1.000000 1.000000 6.495633 1.000000 0.000000 0.000000
1.000000 1.000000 6.712247 1.000000 0.000000 0.000000
1.000000 -1.000000 6.495633 1.000000 0.000000 -0.000000
-1.000000 -1.000000 6.712247 -0.000000 -1.000000 -0.000000
1.000000 -1.000000 6.495633 -0.000000 -1.000000 -0.000000
1.000000 -1.000000 6.712247 -0.000000 -1.000000 -0.000000
-1.000000 -1.000000 6.495633 0.000000 -1.000000 0.000000
-1.000000 1.000000 7.156306 -1.000000 0.000000 0.000000
-1.000000 -1.000000 6.939692 -1.000000 0.000000 0.000000
-1.000000 -1.000000 7.156306 -1.000000 0.000000 0.000000
-1.000000 1.000000 6.939692 -1.000000 0.000000 0.000000
1.000000 1.000000 7.156306 -0.000000 1.000000 0.000000
-1.000000 1.000000 6.939692 -0.000000 1.000000 0.000000
-1.000000 1.000000 7.156306 -0.000000 1.000000 0.000000
1.000000 1.000000 6.939692 0.000000 1.000000 0.000000
1.000000 -1.000000 7.156306 1.000000 0.000000 0.000000
1.000000 1.000000 6.939692 1.000000 0.000000 0.000000
1.000000 1.000000 7.156306 1.000000 0.000000 0.000000
1.000000 -1.000000 6.939692 1.000000 0.000000 -0.000000
-1.000000 -1.000000 7.156306 -0.000000 -1.000000 -0.000000
1.000000 -1.000000 6.939692 -0.000000 -1.000000 -0.000000
1.000000 -1.000000 7.156306 -0.000000 -1.000000 -0.000000
-1.000000 -1.000000 6.939692 0.000000 -1.000000 0.000000
-1.000000 1.000000 7.600366 -1.000000 0.000000 0.000000
-1.000000 -1.000000 7.383751 -1.000000 0.000000 0.000000
-1.000000 -1.000000 7.600366 -1.000000 0.000000 0.000000
-1.000000 1.000000 7.383751 -1.000000 0.000000 0.000000
1.000000 1.000000 7.600366 -0.000000 1.000000 0.000000
-1.000000 1.000000 7.383751 -0.000000 1.000000 0.000000
-1.000000 1.000000 7.600366 -0.000000 1.000000 0.000000
1.000000 1.000000 7.383751 0.000000 1.000000 0.000000
1.000000 -1.000000 7.600366 1.000000 0.000000 0.000000
1.000000 1.000000 7.383751 1.000000 0.000000 0.000000
1.000000 1.000000 7.600366 1.000000 0.000000 0.000000
1.000000 -1.000000 7.383751 1.000000 0.000000 -0.000000
-1.000000 -1.000000 7.600366 -0.000000 -1.000000 -0.000000
1.000000 -1.000000 7.383751 -0.000000 -1.000000 -0.000000
1.000000 -1.000000 7.600366 -0.000000 -1.000000 -0.000000
-1.000000 -1.000000 7.383751 0.000000 -1.000000 0.000000
-1.000000 1.000000 8.044425 -1.000000 0.000000 0.000000
-1.000000 -1.000000 7.827811 -1.000000 0.000000 0.000000
-1.000000 -1.000000 8.044425 -1.000000 0.000000 0.000000
-1.000000 1.000000 7.827811 -1.000000 0.000000 0.000000
1.000000 1.000000 8.044425 -0.000000 1.000000 0.000000
-1.000000 1.000000 7.827811 -0.000000 1.000000 0.000000
-1.000000 1.000000 8.044425 -0.000000 1.000000 0.000000
1.000000 1.000000 7.827811 0.000000 1.000000 0.000000
1.000000 -1.000000 8.044425 1.000000 0.000000 0.000000
1.000000 1.000000 7.827811 1.000000 0.000000 0.000000
1.000000 1.000000 8.044425 1.000000 0.000000 0.000000
1.000000 -1.000000 7.827811 1.000000 0.000000 -0.000000
-1.000000 -1.000000 8.044425 -0.000000 -1.000000 -0.000000
1.000000 -1.000000 7.827811 -0.000000 -1.000000 -0.000000
1.000000 -1.000000 8.044425 -0.000000 -1.000000 -0.000000
-1.000000 -1.000000 7.827811 0.000000 -1.000000 0.000000
-1.000000 1.000000 8.488484 -1.000000 0.000000 0.000000
-1.000000 -1.000000 8.271870 -1.000000 0.000000 0.000000
-1.000000 -1.000000 8.488484 -1.000000 0.000000 0.000000
-1.000000 1.000000 8.271870 -1.000000 0.000000 0.000000
1.000000 1.000000 8.488484 -0.000000 1.000000 0.000000
-1.000000 1.000000 8.271870 -0.000000 1.000000 0.000000
-1.000000 1.000000 8.488484 -0.000000 1.000000 0.000000
1.000000 1.000000 8.271870 0.000000 1.000000 0.000000
1.000000 -1.000000 8.488484 1.000000 0.000000 0.000000
1.000000 1.000000 8.271870 1.000000 0.000000 0.000000
1.000000 1.000000 8.488484 1.000000 0.000000 0.000000
1.000000 -1.000000 8.271870 1.000000 0.000000 -0.000000
-1.000000 -1.000000 8.488484 -0.000000 -1.000000 -0.000000
1.000000 -1.000000 8.271870 -0.000000 -1.000000 -0.000000
1.000000 -1.000000 8.488484 -0.000000 -1.000000 -0.000000
-1.000000 -1.000000 8.271870 0.000000 -1.000000 0.000000
-1.000000 1.000000 8.932544 -1.000000 0.000000 0.000000
-1.000000 -1.000000 8.715929 -1.000000 0.000000 0.000000
-1.000000 -1.000000 8.932544 -1.000000 0.000000 0.000000
-1.000000 1.000000 8.715929 -1.000000 0.000000 0.000000
1.000000 1.000000 8.932544 -0.000000 1.000000 0.000000
-1.000000 1.000000 8.715929 -0.000000 1.000000 0.000000
-1.000000 1.000000 8.932544 -0.000000 1.000000 0.000000
1.000000 1.000000 8.715929 0.000000 1.000000 0.000000
1.000000 -1.000000 8.932544 1.000000 0.000000 0.000000
1.000000 1.000000 8.715929 1.000000 0.000000 0.000000
1.000000 1.000000 8.932544 1.000000 0.000000 0.000000
1.000000 -1.000000 8.715929 1.000000 0.000000 -0.000000
-1.000000 -1.000000 8.932544 -0.000000 -1.000000 -0.000000
1.000000 -1.000000 8.715929 -0.000000 -1.000000 -0.000000
1.000000 -1.000000 8.932544 -0.000000 -1.000000 -0.000000
-1.000000 -1.000000 8.715929 0.000000 -1.000000 0.000000
-1.000000 1.000000 9.264360 -1.000000 0.000000 0.000000
-1.000000 0.927311 0.495792 -1.000000 0.000000 0.000000
-1.000000 0.927311 9.264360 -1.000000 0.000000 0.000000
-1.000000 1.000000 0.495792 -1.000000 0.000000 0.000000
-1.000000 0.584774 9.264360 -1.000000 0.000000 0.000000
-1.000000 0.419944 0.495792 -1.000000 0.000000 0.000000
-1.000000 0.419944 9.264360 -1.000000 0.000000 0.000000
-1.000000 0.584774 0.495792 -1.000000 0.000000 0.000000
-1.000000 0.079131 9.264360 -1.000000 0.000000 0.000000
-1.000000 -0.078476 0.495792 -1.000000 0.000000 0.000000
-1.000000 -0.078476 9.264360 -1.000000 0.000000 0.000000
-1.000000 0.079131 0.495792 -1.000000 0.000000 0.000000
-1.000000 -0.420172 9.264360 -1.000000 0.000000 0.000000
-1.000000 -0.583558 0.495792 -1.000000 0.000000 0.000000
-1.000000 -0.583558 9.264360 -1.000000 0.000000 0.000000
-1.000000 -0.420172 0.495792 -1.000000 0.000000 0.000000
-1.000000 -0.927765 9.264360 -1.000000 0.000000 0.000000
-1.000000 -1.000000 0.495792 -1.000000 0.000000 0.000000
-1.000000 -1.000000 9.264360 -1.000000 0.000000 0.000000
-1.000000 -0.927765 0.495792 -1.000000 0.000000 0.000000
-1.000000 0.106240 -0.000525 -1.000000 0.000000 0.000000
-1.000000 0.106240 0.495792 -1.000000 0.000000 0.000000
-1.000000 1.000000 -0.000525 -1.000000 0.000000 0.000000
-1.000000 -0.106458 0.495792 -1.000000 0.000000 0.000000
-1.000000 -1.000000 -0.000525 -1.000000 0.000000 0.000000
-1.000000 -0.106458 -0.000525 -1.000000 0.000000 0.000000
-1.000000 0.106240 0.495792 -1.000000 0.000000 0.000000
-1.000000 -0.106458 0.279178 -1.000000 0.000000 0.000000
-1.000000 -0.106458 0.495792 -1.000000 0.000000 0.000000
-1.000000 0.106240 0.279178 -1.000000 0.000000 0.000000
1.000000 1.000000 9.264360 0.000002 1.000000 0.000000
0.927311 1.000000 0.495792 0.000002 1.000000 0.000000
0.927311 1.000000 9.264360 0.000002 1.000000 0.000000
1.000000 1.000000 0.495792 0.000002 1.000000 -0.000000
0.584774 1.000000 9.264360 -0.000000 1.000000 0.000000
0.419944 1.000000 0.495792 -0.000000 1.000000 0.000000
0.419944 1.000000 9.264360 -0.000000 1.000000 0.000000
0.584774 1.000000 0.495792 0.000000 1.000000 0.000000
0.079131 1.000000 9.264360 -0.000000 1.000000 0.000000
-0.078476 1.000000 0.495792 -0.000000 1.000000 0.000000
-0.078476 1.000000 9.264360 -0.000000 1.000000 0.000000
0.079131 1.000000 0.495792 0.000000 1.000000 0.000000
-0.420172 1.000000 9.264360 -0.000000 1.000000 0.000000
-0.583558 1.000000 0.495792 -0.000000 1.000000 0.000000
-0.583558 1.000000 9.264360 -0.000000 1.000000 0.000000
-0.420172 1.000000 0.495792 0.000000 1.000000 0.000000
-0.927765 1.000000 9.264360 0.000001 1.000000 0.000000
-1.000000 1.000000 0.495792 0.000001 1.000000 0.000000
-1.000000 1.000000 9.264360 0.000001 1.000000 0.000000
-0.927765 1.000000 0.495792 0.000001 1.000000 -0.000000
1.000000 1.000000 0.495792 -0.000000 1.000000 0.000000
0.106240 1.000000 -0.000525 -0.000000 1.000000 0.000000
0.106240 1.000000 0.495792 -0.000000 1.000000 0.000000
1.000000 1.000000 -0.000525 0.000000 1.000000 0.000000
-0.106458 1.000000 0.495792 -0.000000 1.000000 0.000000
-1.000000 1.000000 -0.000525 -0.000000 1.000000 0.000000
-1.000000 1.000000 0.495792 -0.000000 1.000000 0.000000
-0.106458 1.000000 -0.000525 0.000000 1.000000 0.000000
0.106240 1.000000 0.495792 -0.000000 1.000000 0.000000
-0.106458 1.000000 0.279178 -0.000000 1.000000 0.000000
-0.106458 1.000000 0.495792 -0.000000 1.000000 0.000000
0.106240 1.000000 0.279178 0.000000 1.000000 0.000000
1.000000 -1.000000 9.264360 1.000000 0.000001 0.000000
1.000000 -0.927311 0.495792 1.000000 0.000001 0.000000
1.000000 -0.927311 9.264360 1.000000 0.000001 0.000000
1.000000 -1.000000 0.495792 1.000000 0.000001 -0.000000
1.000000 -0.584774 9.264360 1.000000 0.000000 0.000000
1.000000 -0.419944 0.495792 1.000000 0.000000 0.000000
1.000000 -0.419944 9.264360 1.000000 0.000000 0.000000
1.000000 -0.584774 0.495792 1.000000 0.000000 -0.000000
1.000000 -0.079131 9.264360 1.000000 0.000000 0.000000
1.000000 0.078476 0.495792 1.000000 0.000000 0.000000
1.000000 0.078476 9.264360 1.000000 0.000000 0.000000
1.000000 -0.079131 0.495792 1.000000 0.000000 -0.000000
1.000000 0.420172 9.264360 1.000000 0.000000 0.000000
1.000000 0.583558 0.495792 1.000000 0.000000 0.000000
1.000000 0.583558 9.264360 1.000000 0.000000 0.000000
1.000000 0.420172 0.495792 1.000000 0.000000 -0.000000
1.000000 0.927765 9.264360 1.000000 0.000002 0.000000
1.000000 1.000000 0.495792 1.000000 0.000002 0.000000
1.000000 1.000000 9.264360 1.000000 0.000002 0.000000
1.000000 0.927765 0.495792 1.000000 0.000002 -0.000000
1.000000 -1.000000 0.495792 1.000000 0.000000 0.000000
1.000000 -0.106240 -0.000525 1.000000 0.000000 0.000000
1.000000 -0.106240 0.495792 1.000000 0.000000 0.000000
1.000000 -1.000000 -0.000525 1.000000 0.000000 -0.000000
1.000000 0.106458 0.495792 1.000000 0.000000 0.000000
1.000000 1.000000 -0.000525 1.000000 0.000000 0.000000
1.000000 1.000000 0.495792 1.000000 0.000000 0.000000
1.000000 0.106458 -0.000525 1.000000 0.000000 -0.000000
1.000000 -0.106240 0.495792 1.000000 0.000000 0.000000
1.000000 0.106458 0.279178 1.000000 0.000000 0.000000
1.000000 0.106458 0.495792 1.000000 0.000000 0.000000
1.000000 -0.106240 0.279178 1.000000 0.000000 -0.000000
-1.000000 -1.000000 9.264360 -0.000000 -1.000000 -0.000000
-0.927311 -1.000000 0.495792 -0.000000 -1.000000 -0.000000
-0.927311 -1.000000 9.264360 -0.000000 -1.000000 -0.000000
-1.000000 -1.000000 0.495792 0.000000 -1.000000 0.000000
-0.584774 -1.000000 9.264360 -0.000000 -1.000000 -0.000000
-0.419944 -1.000000 0.495792 -0.000000 -1.000000 -0.000000
-0.419944 -1.000000 9.264360 -0.000000 -1.000000 -0.000000
-0.584774 -1.000000 0.495792 0.000000 -1.000000 0.000000
-0.079131 -1.000000 9.264360 -0.000000 -1.000000 -0.000000
0.078476 -1.000000 0.495792 -0.000000 -1.000000 -0.000000
0.078476 -1.000000 9.264360 -0.000000 -1.000000 -0.000000
-0.079131 -1.000000 0.495792 0.000000 -1.000000 0.000000
0.420172 -1.000000 9.264360 -0.000000 -1.000000 -0.000000
0.583558 -1.000000 0.495792 -0.000000 -1.000000 -0.000000
0.583558 -1.000000 9.264360 -0.000000 -1.000000 -0.000000
0.420172 -1.000000 0.495792 0.000000 -1.000000 0.000000
0.927765 -1.000000 9.264360 -0.000000 -1.000000 -0.000000
1.000000 -1.000000 0.495792 -0.000000 -1.000000 -0.000000
1.000000 -1.000000 9.264360 -0.000000 -1.000000 -0.000000
0.927765 -1.000000 0.495792 0.000000 -1.000000 0.000000
-0.106240 -1.000000 -0.000525 -0.000000 -1.000000 -0.000000
-0.106240 -1.000000 0.495792 -0.000000 -1.000000 -0.000000
-1.000000 -1.000000 -0.000525 0.000000 -1.000000 0.000000
0.106458 -1.000000 0.495792 -0.000000 -1.000000 -0.000000
1.000000 -1.000000 -0.000525 -0.000000 -1.000000 -0.000000
0.106458 -1.000000 -0.000525 0.000000 -1.000000 0.000000
-0.106240 -1.000000 0.495792 -0.000000 -1.000000 -0.000000
0.106458 -1.000000 0.279178 -0.000000 -1.000000 -0.000000
0.106458 -1.000000 0.495792 -0.000000 -1.000000 -0.000000
-0.106240 -1.000000 0.279178 0.000000 -1.000000 0.000000
1.000000 -1.000000 0.385869 -0.000000 0.000000 1.000000
-1.000000 1.000000 0.385869 -0.000000 0.000000 1.000000
-1.000000 -1.000000 0.385869 -0.000000 0.000000 1.000000
1.000000 1.000000 0.385869 -0.000000 0.000000 1.000000
1.000000 -1.000000 0.829793 -0.000000 0.000000 1.000000
-1.000000 1.000000 0.829793 -0.000000 0.000000 1.000000
-1.000000 -1.000000 0.829793 -0.000000 0.000000 1.000000
1.000000 1.000000 0.829793 -0.000000 0.000000 1.000000
1.000000 -1.000000 1.273718 -0.000000 0.000000 1.000000
-1.000000 1.000000 1.273718 -0.000000 0.000000 1.000000
-1.000000 -1.000000 1.273718 -0.000000 0.000000 1.000000
1.000000 1.000000 1.273718 -0.000000 0.000000 1.000000
1.000000 -1.000000 1.717643 -0.000000 0.000000 1.000000
-1.000000 1.000000 1.717643 -0.000000 0.000000 1.000000
-1.000000 -1.000000 1.717643 -0.000000 0.000000 1.000000
1.000000 1.000000 1.717643 -0.000000 0.000000 1.000000
1.000000 -1.000000 2.161567 -0.000000 0.000000 1.000000
-1.000000 1.000000 2.161567 -0.000000 0.000000 1.000000
-1.000000 -1.000000 2.161567 -0.000000 0.000000 1.000000
1.000000 1.000000 2.161567 -0.000000 0.000000 1.000000
1.000000 -1.000000 2.605491 -0.000000 0.000000 1.000000
-1.000000 1.000000 2.605491 -0.000000 0.000000 1.000000
-1.000000 -1.000000 2.605491 -0.000000 0.000000 1.000000
1.000000 1.000000 2.605491 -0.000000 0.000000 1.000000
1.000000 -1.000000 3.049416 -0.000000 0.000000 1.000000
-1.000000 1.000000 3.049416 -0.000000 0.000000 1.000000
-1.000000 -1.000000 3.049416 -0.000000 0.000000 1.000000
1.000000 1.000000 3.049416 -0.000000 0.000000 1.000000
1.000000 -1.000000 3.493340 -0.000000 0.000000 1.000000
-1.000000 1.000000 3.493340 -0.000000 0.000000 1.000000
-1.000000 -1.000000 3.493340 -0.000000 0.000000 1.000000
1.000000 1.000000 3.493340 -0.000000 0.000000 1.000000
1.000000 -1.000000 3.937264 -0.000000 0.000000 1.000000
-1.000000 1.000000 3.937264 -0.000000 0.000000 1.000000
-1.000000 -1.000000 3.937264 -0.000000 0.000000 1.000000
1.000000 1.000000 3.937264 -0.000000 0.000000 1.000000
1.000000 -1.000000 4.381189 -0.000000 0.000000 1.000000
-1.000000 1.000000 4.381189 -0.000000 0.000000 1.000000
-1.000000 -1.000000 4.381189 -0.000000 0.000000 1.000000
1.000000 1.000000 4.381189 -0.000000 0.000000 1.000000
1.000000 -1.000000 4.825114 -0.000000 0.000000 1.000000
-1.000000 1.000000 4.825114 -0.000000 0.000000 1.000000
-1.000000 -1.000000 4.825114 -0.000000 0.000000 1.000000
1.000000 1.000000 4.825114 -0.000000 0.000000 1.000000
1.000000 -1.000000 5.269038 -0.000000 0.000000 1.000000
-1.000000 1.000000 5.269038 -0.000000 0.000000 1.000000
-1.000000 -1.000000 5.269038 -0.000000 0.000000 1.000000
1.000000 1.000000 5.269038 -0.000000 0.000000 1.000000
1.000000 -1.000000 5.712963 -0.000000 0.000000 1.000000
-1.000000 1.000000 5.712963 -0.000000 0.000000 1.000000
-1.000000 -1.000000 5.712963 -0.000000 0.000000 1.000000
1.000000 1.000000 5.712963 -0.000000 0.000000 1.000000
1.000000 -1.000000 6.156887 -0.000000 0.000000 1.000000
-1.000000 1.000000 6.156887 -0.000000 0.000000 1.000000
-1.000000 -1.000000 6.156887 -0.000000 0.000000 1.000000
1.000000 1.000000 6.156887 -0.000000 0.000000 1.000000
1.000000 -1.000000 6.600811 -0.000000 0.000000 1.000000
-1.000000 1.000000 6.600811 -0.000000 0.000000 1.000000
-1.000000 -1.000000 6.600811 -0.000000 0.000000 1.000000
1.000000 1.000000 6.600811 -0.000000 0.000000 1.000000
1.000000 -1.000000 7.044736 -0.000000 0.000000 1.000000
-1.000000 1.000000 7.044736 -0.000000 0.000000 1.000000
-1.000000 -1.000000 7.044736 -0.000000 0.000000 1.000000
1.000000 1.000000 7.044736 -0.000000 0.000000 1.000000
1.000000 -1.000000 7.488660 -0.000000 0.000000 1.000000
-1.000000 1.000000 7.488660 -0.000000 0.000000 1.000000
-1.000000 -1.000000 7.488660 -0.000000 0.000000 1.000000
1.000000 1.000000 7.488660 -0.000000 0.000000 1.000000
1.000000 -1.000000 7.932585 -0.000000 0.000000 1.000000
-1.000000 1.000000 7.932585 -0.000000 0.000000 1.000000
-1.000000 -1.000000 7.932585 -0.000000 0.000000 1.000000
1.000000 1.000000 7.932585 -0.000000 0.000000 1.000000
1.000000 -1.000000 8.376509 -0.000000 0.000000 1.000000
-1.000000 1.000000 8.376509 -0.000000 0.000000 1.000000
-1.000000 -1.000000 8.376509 -0.000000 0.000000 1.000000
1.000000 1.000000 8.376509 -0.000000 0.000000 1.000000
1.000000 -1.000000 8.820434 -0.000000 0.000000 1.000000
-1.000000 1.000000 8.820434 -0.000000 0.000000 1.000000
-1.000000 -1.000000 8.820434 -0.000000 0.000000 1.000000
1.000000 1.000000 8.820434 -0.000000 0.000000 1.000000
1.000000 -1.000000 9.264360 -0.000001 0.000000 1.000000
-1.000000 1.000000 9.264358 -0.000001 0.000000 1.000000
-1.000000 -1.000000 9.264358 -0.000001 0.000000 1.000000
1.000000 -1.000000 9.264360 -0.000000 0.000001 1.000000
1.000000 1.000000 9.264358 -0.000000 0.000001 1.000000
-1.000000 1.000000 9.264358 -0.000000 0.000001 1.000000
1.000000 -1.000000 -0.000525 -0.000000 0.000000 1.000000
-1.000000 1.000000 -0.000525 -0.000000 0.000000 1.000000
-1.000000 -1.000000 -0.000525 -0.000000 0.000000 1.000000
1.000000 1.000000 -0.000525 -0.000000 0.000000 1.000000
-1.000000 0.927311 9.264360 -1.000000 0.000000 0.000000
-1.000000 0.927311 9.157889 -1.000000 0.000000 0.000000
-1.000000 -0.927765 9.157889 -1.000000 0.000000 0.000000
-1.000000 -0.927765 9.264360 -1.000000 0.000000 0.000000
0.927311 1.000000 9.264360 -0.000000 1.000000 0.000000
0.927311 1.000000 9.157889 -0.000000 1.000000 0.000000
-0.927765 1.000000 9.157889 -0.000000 1.000000 0.000000
-0.927765 1.000000 9.264360 -0.000000 1.000000 0.000000
1.000000 -0.927311 9.264360 1.000000 -0.000000 0.000000
1.000000 -0.927311 9.157889 1.000000 -0.000000 0.000000
1.000000 0.927765 9.157889 1.000000 -0.000000 0.000000
1.000000 0.927765 9.264360 1.000000 -0.000000 0.000000
-0.927311 -1.000000 9.264360 0.000000 -1.000000 0.000000
-0.927311 -1.000000 9.157889 0.000000 -1.000000 0.000000
0.927765 -1.000000 9.157889 0.000000 -1.000000 0.000000
0.927765 -1.000000 9.264360 -0.000000 -1.000000 -0.000000
3 0 1 2
3 0 3 1
3 4 5 6
3 4 7 5
3 8 9 10
3 8 11 9
3 12 13 14
3 12 15 13
3 16 17 18
3 16 19 17
3 20 21 22
3 20 23 21
3 24 25 26
3 24 27 25
3 28 29 30
3 28 31 29
3 32 33 34
3 32 35 33
3 36 37 38
3 36 39 37
3 40 41 42
3 40 43 41
3 44 45 46
3 44 47 45
3 48 49 50
3 48 51 49
3 52 53 54
3 52 55 53
3 56 57 58
3 56 59 57
3 60 61 62
3 60 63 61
3 64 65 66
3 64 67 65
3 68 69 70
3 68 71 69
3 72 73 74
3 72 75 73
3 76 77 78
3 76 79 77
3 80 81 82
3 80 83 81
3 84 85 86
3 84 87 85
3 88 89 90
3 88 91 89
3 92 93 94
3 92 95 93
3 96 97 98
3 96 99 97
3 100 101 102
3 100 103 101
3 104 105 106
3 104 107 105
3 108 109 110
3 108 111 109
3 112 113 114
3 112 115 113
3 116 117 118
3 116 119 117
3 120 121 122
3 120 123 121
3 124 125 126
3 124 127 125
3 128 129 130
3 128 131 129
3 132 133 134
3 132 135 133
3 136 137 138
3 136 139 137
3 140 141 142
3 140 143 141
3 144 145 146
3 144 147 145
3 148 149 150
3 148 151 149
3 152 153 154
3 152 155 153
3 156 157 158
3 156 159 157
3 160 161 162
3 160 163 161
3 164 165 166
3 164 167 165
3 168 169 170
3 168 171 169
3 172 173 174
3 172 175 173
3 176 177 178
3 176 179 177
3 180 181 182
3 180 183 181
3 184 185 186
3 184 187 185
3 188 189 190
3 188 191 189
3 192 193 194
3 192 195 193
3 196 197 198
3 196 199 197
3 200 201 202
3 200 203 201
3 204 205 206
3 204 207 205
3 208 209 210
3 208 211 209
3 212 213 214
3 212 215 213
3 216 217 218
3 216 219 217
3 220 221 222
3 220 223 221
3 224 225 226
3 224 227 225
3 228 229 230
3 228 231 229
3 232 233 234
3 232 235 233
3 236 237 238
3 236 239 237
3 240 241 242
3 240 243 241
3 244 245 246
3 244 247 245
3 248 249 250
3 248 251 249
3 252 253 254
3 252 255 253
3 256 257 258
3 256 259 257
3 260 261 262
3 260 263 261
3 264 265 266
3 264 267 265
3 268 269 270
3 268 271 269
3 272 273 274
3 272 275 273
3 276 277 278
3 276 279 277
3 280 281 282
3 280 283 281
3 284 285 286
3 284 287 285
3 288 289 290
3 288 291 289
3 292 293 294
3 292 295 293
3 296 297 298
3 296 299 297
3 300 301 302
3 300 303 301
3 304 305 306
3 304 307 305
3 308 309 310
3 308 311 309
3 312 313 314
3 312 315 313
3 316 317 318
3 316 319 317
3 320 321 322
3 320 323 321
3 307 324 325
3 307 326 324
3 327 328 321
3 327 329 328
3 330 331 332
3 330 333 331
3 334 335 336
3 334 337 335
3 338 339 340
3 338 341 339
3 342 343 344
3 342 345 343
3 346 347 348
3 346 349 347
3 350 351 352
3 350 353 351
3 354 355 356
3 354 357 355
3 358 359 360
3 358 361 359
3 362 363 364
3 362 365 363
3 366 367 368
3 366 369 367
3 370 371 372
3 370 373 371
3 374 375 376
3 374 377 375
3 378 379 380
3 378 381 379
3 382 383 384
3 382 385 383
3 386 387 388
3 386 389 387
3 390 391 392
3 390 393 391
3 394 395 396
3 394 397 395
3 398 399 400
3 398 401 399
3 402 403 404
3 402 405 403
3 406 407 408
3 406 409 407
3 410 411 412
3 410 413 411
3 414 415 416
3 414 417 415
3 401 418 419
3 401 420 418
3 421 422 415
3 421 423 422
3 424 425 426
3 424 427 425
3 428 429 430
3 428 431 429
3 432 433 434
3 432 435 433
3 436 437 438
3 436 439 437
3 440 441 442
3 440 443 441
3 444 445 446
3 444 447 445
3 448 449 450
3 448 451 449
3 452 453 454
3 452 455 453
3 456 457 458
3 456 459 457
3 460 461 462
3 460 463 461
3 464 465 466
3 464 467 465
3 468 469 470
3 468 471 469
3 472 473 474
3 472 475 473
3 476 477 478
3 476 479 477
3 480 481 482
3 480 483 481
3 484 485 486
3 484 487 485
3 488 489 490
3 488 491 489
3 492 493 494
3 492 495 493
3 496 497 498
3 496 499 497
3 500 501 502
3 500 503 501
3 504 505 506
3 504 507 505
3 508 509 510
3 511 512 513
3 514 515 516
3 514 517 515
3 518 519 520
3 518 520 521
3 522 523 524
3 522 524 525
3 526 527 528
3 526 528 529
3 530 531 532
3 530 532 533
