ply
format ascii 1.0
comment Created by Blender 3.0.1 - www.blender.org
element vertex 534
property float x
property float y
property float z
property float nx
property float ny
property float nz
element face 268
property list uchar uint vertex_indices
end_header
-1.000000 1.000000 9.264360 -1.000000 0.000000 0.000000
-1.000000 0.927311 0.495792 -1.000000 0.000000 0.000000
-1.000000 0.927311 9.264360 -1.000000 0.000000 0.000000
-1.000000 1.000000 0.495792 -1.000000 0.000000 0.000000
-1.000000 0.584774 9.264360 -1.000000 0.000000 0.000000
-1.000000 0.419944 0.495792 -1.000000 0.000000 0.000000
-1.000000 0.419944 9.264360 -1.000000 0.000000 0.000000
-1.000000 0.584774 0.495792 -1.000000 0.000000 0.000000
-1.000000 0.079131 9.264360 -1.000000 0.000000 0.000000
-1.000000 -0.078476 0.495792 -1.000000 0.000000 0.000000
-1.000000 -0.078476 9.264360 -1.000000 0.000000 0.000000
-1.000000 0.079131 0.495792 -1.000000 0.000000 0.000000
-1.000000 -0.420172 9.264360 -1.000000 0.000000 0.000000
-1.000000 -0.583558 0.495792 -1.000000 0.000000 0.000000
-1.000000 -0.583558 9.264360 -1.000000 0.000000 0.000000
-1.000000 -0.420172 0.495792 -1.000000 0.000000 0.000000
-1.000000 -0.927765 9.264360 -1.000000 0.000000 0.000000
-1.000000 -1.000000 0.495792 -1.000000 0.000000 0.000000
-1.000000 -1.000000 9.264360 -1.000000 0.000000 0.000000
-1.000000 -0.927765 0.495792 -1.000000 0.000000 0.000000
-1.000000 0.106240 -0.000525 -1.000000 0.000000 0.000000
-1.000000 0.106240 0.495792 -1.000000 0.000000 0.000000
-1.000000 1.000000 -0.000525 -1.000000 0.000000 0.000000
-1.000000 -0.106458 0.495792 -1.000000 0.000000 0.000000
-1.000000 -1.000000 -0.000525 -1.000000 0.000000 0.000000
-1.000000 -0.106458 -0.000525 -1.000000 0.000000 0.000000
-1.000000 0.106240 0.495792 -1.000000 0.000000 0.000000
-1.000000 -0.106458 0.279178 -1.000000 0.000000 0.000000
-1.000000 -0.106458 0.495792 -1.000000 0.000000 0.000000
-1.000000 0.106240 0.279178 -1.000000 0.000000 0.000000
-1.000000 0.927311 0.939475 -1.000000 0.000000 0.000000
-1.000000 -0.927765 0.722860 -1.000000 0.000000 0.000000
-1.000000 -0.927765 0.939475 -1.000000 0.000000 0.000000
-1.000000 0.927311 0.722860 -1.000000 0.000000 0.000000
-1.000000 0.927311 1.382385 -1.000000 0.000000 0.000000
-1.000000 -0.927765 1.165771 -1.000000 0.000000 0.000000
-1.000000 -0.927765 1.382385 -1.000000 0.000000 0.000000
-1.000000 0.927311 1.165771 -1.000000 0.000000 0.000000
-1.000000 0.927311 1.826863 -1.000000 0.000000 0.000000
-1.000000 -0.927765 1.610249 -1.000000 0.000000 0.000000
-1.000000 -0.927765 1.826863 -1.000000 0.000000 0.000000
-1.000000 0.927311 1.610249 -1.000000 0.000000 0.000000
-1.000000 0.927311 2.271342 -1.000000 0.000000 0.000000
-1.000000 -0.927765 2.054728 -1.000000 0.000000 0.000000
-1.000000 -0.927765 2.271342 -1.000000 0.000000 0.000000
-1.000000 0.927311 2.054728 -1.000000 0.000000 0.000000
-1.000000 0.927311 2.718172 -1.000000 0.000000 0.000000
-1.000000 -0.927765 2.501558 -1.000000 0.000000 0.000000
-1.000000 -0.927765 2.718172 -1.000000 0.000000 0.000000
-1.000000 0.927311 2.501558 -1.000000 0.000000 0.000000
-1.000000 0.927311 3.160298 -1.000000 0.000000 0.000000
-1.000000 -0.927765 2.943684 -1.000000 0.000000 0.000000
-1.000000 -0.927765 3.160298 -1.000000 0.000000 0.000000
-1.000000 0.927311 2.943684 -1.000000 0.000000 0.000000
-1.000000 0.927311 3.604777 -1.000000 0.000000 0.000000
-1.000000 -0.927765 3.388162 -1.000000 0.000000 0.000000
-1.000000 -0.927765 3.604777 -1.000000 0.000000 0.000000
-1.000000 0.927311 3.388162 -1.000000 0.000000 0.000000
-1.000000 0.927311 4.046903 -1.000000 0.000000 0.000000
-1.000000 -0.927765 3.830289 -1.000000 0.000000 0.000000
-1.000000 -0.927765 4.046903 -1.000000 0.000000 0.000000
-1.000000 0.927311 3.830289 -1.000000 0.000000 0.000000
-1.000000 0.927311 4.491382 -1.000000 0.000000 0.000000
-1.000000 -0.927765 4.274767 -1.000000 0.000000 0.000000
-1.000000 -0.927765 4.491382 -1.000000 0.000000 0.000000
-1.000000 0.927311 4.274767 -1.000000 0.000000 0.000000
-1.000000 0.927311 4.935860 -1.000000 0.000000 0.000000
-1.000000 0.927311 4.719245 -1.000000 0.000000 0.000000
-1.000000 -0.927765 4.719245 -1.000000 0.000000 0.000000
-1.000000 -0.927765 4.935860 -1.000000 0.000000 0.000000
-1.000000 0.927311 5.377987 -1.000000 0.000000 0.000000
-1.000000 0.927311 5.161372 -1.000000 0.000000 0.000000
-1.000000 -0.927765 5.161372 -1.000000 0.000000 0.000000
-1.000000 -0.927765 5.377987 -1.000000 0.000000 0.000000
-1.000000 0.927311 5.824817 -1.000000 0.000000 0.000000
-1.000000 0.927311 5.608202 -1.000000 0.000000 0.000000
-1.000000 -0.927765 5.608202 -1.000000 0.000000 0.000000
-1.000000 -0.927765 5.824817 -1.000000 0.000000 0.000000
-1.000000 0.927311 6.269296 -1.000000 0.000000 0.000000
-1.000000 0.927311 6.052681 -1.000000 0.000000 0.000000
-1.000000 -0.927765 6.052681 -1.000000 0.000000 0.000000
-1.000000 -0.927765 6.269296 -1.000000 0.000000 0.000000
-1.000000 0.927311 7.155901 -1.000000 0.000000 0.000000
-1.000000 0.927311 6.939286 -1.000000 0.000000 0.000000
-1.000000 -0.927765 6.939286 -1.000000 0.000000 0.000000
-1.000000 -0.927765 7.155901 -1.000000 0.000000 0.000000
-1.000000 0.927311 6.711422 -1.000000 0.000000 0.000000
-1.000000 0.927311 6.494808 -1.000000 0.000000 0.000000
-1.000000 -0.927765 6.494808 -1.000000 0.000000 0.000000
-1.000000 -0.927765 6.711422 -1.000000 0.000000 0.000000
-1.000000 0.927311 7.600771 -1.000000 0.000000 0.000000
-1.000000 0.927311 7.384157 -1.000000 0.000000 0.000000
-1.000000 -0.927765 7.384157 -1.000000 0.000000 0.000000
-1.000000 -0.927765 7.600771 -1.000000 0.000000 0.000000
-1.000000 0.927311 8.041722 -1.000000 0.000000 0.000000
-1.000000 0.927311 7.825108 -1.000000 0.000000 0.000000
-1.000000 -0.927765 7.825108 -1.000000 0.000000 0.000000
-1.000000 -0.927765 8.041722 -1.000000 0.000000 0.000000
-1.000000 0.927311 8.488552 -1.000000 0.000000 0.000000
-1.000000 0.927311 8.271938 -1.000000 0.000000 0.000000
-1.000000 -0.927765 8.271938 -1.000000 0.000000 0.000000
-1.000000 -0.927765 8.488552 -1.000000 0.000000 0.000000
-1.000000 0.927311 8.929502 -1.000000 0.000000 0.000000
-1.000000 0.927311 8.712889 -1.000000 0.000000 0.000000
-1.000000 -0.927765 8.712889 -1.000000 0.000000 0.000000
-1.000000 -0.927765 8.929502 -1.000000 0.000000 0.000000
-1.000000 0.927311 9.264360 -1.000000 0.000000 0.000000
-1.000000 0.927311 9.157889 -1.000000 0.000000 0.000000
-1.000000 -0.927765 9.157889 -1.000000 0.000000 0.000000
-1.000000 -0.927765 9.264360 -1.000000 0.000000 0.000000
1.000000 1.000000 9.264360 0.000002 1.000000 0.000000
0.927311 1.000000 0.495792 0.000002 1.000000 0.000000
0.927311 1.000000 9.264360 0.000002 1.000000 0.000000
1.000000 1.000000 0.495792 0.000002 1.000000 -0.000000
0.584774 1.000000 9.264360 -0.000000 1.000000 0.000000
0.419944 1.000000 0.495792 -0.000000 1.000000 0.000000
0.419944 1.000000 9.264360 -0.000000 1.000000 0.000000
0.584774 1.000000 0.495792 0.000000 1.000000 0.000000
0.079131 1.000000 9.264360 -0.000000 1.000000 0.000000
-0.078476 1.000000 0.495792 -0.000000 1.000000 0.000000
-0.078476 1.000000 9.264360 -0.000000 1.000000 0.000000
0.079131 1.000000 0.495792 0.000000 1.000000 0.000000
-0.420172 1.000000 9.264360 -0.000000 1.000000 0.000000
-0.583558 1.000000 0.495792 -0.000000 1.000000 0.000000
-0.583558 1.000000 9.264360 -0.000000 1.000000 0.000000
-0.420172 1.000000 0.495792 0.000000 1.000000 0.000000
-0.927765 1.000000 9.264360 0.000001 1.000000 0.000000
-1.000000 1.000000 0.495792 0.000001 1.000000 0.000000
-1.000000 1.000000 9.264360 0.000001 1.000000 0.000000
-0.927765 1.000000 0.495792 0.000001 1.000000 -0.000000
1.000000 1.000000 0.495792 -0.000000 1.000000 0.000000
0.106240 1.000000 -0.000525 -0.000000 1.000000 0.000000
0.106240 1.000000 0.495792 -0.000000 1.000000 0.000000
1.000000 1.000000 -0.000525 0.000000 1.000000 0.000000
-0.106458 1.000000 0.495792 -0.000000 1.000000 0.000000
-1.000000 1.000000 -0.000525 -0.000000 1.000000 0.000000
-1.000000 1.000000 0.495792 -0.000000 1.000000 0.000000
-0.106458 1.000000 -0.000525 0.000000 1.000000 0.000000
0.106240 1.000000 0.495792 -0.000000 1.000000 0.000000
-0.106458 1.000000 0.279178 -0.000000 1.000000 0.000000
-0.106458 1.000000 0.495792 -0.000000 1.000000 0.000000
0.106240 1.000000 0.279178 0.000000 1.000000 0.000000
0.927311 1.000000 0.939475 -0.000000 1.000000 0.000000
-0.927765 1.000000 0.722860 -0.000000 1.000000 0.000000
-0.927765 1.000000 0.939475 -0.000000 1.000000 0.000000
0.927311 1.000000 0.722860 -0.000000 1.000000 0.000000
0.927311 1.000000 1.382385 -0.000000 1.000000 0.000000
-0.927765 1.000000 1.165771 -0.000000 1.000000 0.000000
-0.927765 1.000000 1.382385 -0.000000 1.000000 0.000000
0.927311 1.000000 1.165771 -0.000000 1.000000 0.000000
0.927311 1.000000 1.826863 -0.000000 1.000000 0.000000
-0.927765 1.000000 1.610249 -0.000000 1.000000 0.000000
-0.927765 1.000000 1.826863 -0.000000 1.000000 0.000000
0.927311 1.000000 1.610249 -0.000000 1.000000 0.000000
0.927311 1.000000 2.271342 -0.000000 1.000000 0.000000
-0.927765 1.000000 2.054728 -0.000000 1.000000 0.000000
-0.927765 1.000000 2.271342 -0.000000 1.000000 0.000000
0.927311 1.000000 2.054728 -0.000000 1.000000 0.000000
0.927311 1.000000 2.718172 -0.000000 1.000000 0.000000
-0.927765 1.000000 2.501558 -0.000000 1.000000 0.000000
-0.927765 1.000000 2.718172 -0.000000 1.000000 0.000000
0.927311 1.000000 2.501558 -0.000000 1.000000 0.000000
0.927311 1.000000 3.160298 -0.000000 1.000000 0.000000
-0.927765 1.000000 2.943684 -0.000000 1.000000 0.000000
-0.927765 1.000000 3.160298 -0.000000 1.000000 0.000000
0.927311 1.000000 2.943684 -0.000000 1.000000 0.000000
0.927311 1.000000 3.604777 -0.000000 1.000000 0.000000
-0.927765 1.000000 3.388162 -0.000000 1.000000 0.000000
-0.927765 1.000000 3.604777 -0.000000 1.000000 0.000000
0.927311 1.000000 3.388162 -0.000000 1.000000 0.000000
0.927311 1.000000 4.046903 -0.000000 1.000000 0.000000
-0.927765 1.000000 3.830289 -0.000000 1.000000 0.000000
-0.927765 1.000000 4.046903 -0.000000 1.000000 0.000000
0.927311 1.000000 3.830289 -0.000000 1.000000 0.000000
0.927311 1.000000 4.491382 -0.000000 1.000000 0.000000
-0.927765 1.000000 4.274767 -0.000000 1.000000 0.000000
-0.927765 1.000000 4.491382 -0.000000 1.000000 0.000000
0.927311 1.000000 4.274767 -0.000000 1.000000 0.000000
0.927311 1.000000 4.935860 -0.000000 1.000000 0.000000
0.927311 1.000000 4.719245 -0.000000 1.000000 0.000000
-0.927765 1.000000 4.719245 -0.000000 1.000000 0.000000
-0.927765 1.000000 4.935860 -0.000000 1.000000 0.000000
0.927311 1.000000 5.377987 -0.000000 1.000000 0.000000
0.927311 1.000000 5.161372 -0.000000 1.000000 0.000000
-0.927765 1.000000 5.161372 -0.000000 1.000000 0.000000
-0.927765 1.000000 5.377987 -0.000000 1.000000 0.000000
0.927311 1.000000 5.824817 -0.000000 1.000000 0.000000
0.927311 1.000000 5.608202 -0.000000 1.000000 0.000000
-0.927765 1.000000 5.608202 -0.000000 1.000000 0.000000
-0.927765 1.000000 5.824817 -0.000000 1.000000 0.000000
0.927311 1.000000 6.269296 -0.000000 1.000000 0.000000
0.927311 1.000000 6.052681 -0.000000 1.000000 0.000000
-0.927765 1.000000 6.052681 -0.000000 1.000000 0.000000
-0.927765 1.000000 6.269296 -0.000000 1.000000 0.000000
0.927311 1.000000 7.155901 -0.000000 1.000000 0.000000
0.927311 1.000000 6.939286 -0.000000 1.000000 0.000000
-0.927765 1.000000 6.939286 -0.000000 1.000000 0.000000
-0.927765 1.000000 7.155901 -0.000000 1.000000 0.000000
0.927311 1.000000 6.711422 -0.000000 1.000000 0.000000
0.927311 1.000000 6.494808 -0.000000 1.000000 0.000000
-0.927765 1.000000 6.494808 -0.000000 1.000000 0.000000
-0.927765 1.000000 6.711422 -0.000000 1.000000 0.000000
0.927311 1.000000 7.600771 -0.000000 1.000000 0.000000
0.927311 1.000000 7.384157 -0.000000 1.000000 0.000000
-0.927765 1.000000 7.384157 -0.000000 1.000000 0.000000
-0.927765 1.000000 7.600771 -0.000000 1.000000 0.000000
0.927311 1.000000 8.041722 -0.000000 1.000000 0.000000
0.927311 1.000000 7.825108 -0.000000 1.000000 0.000000
-0.927765 1.000000 7.825108 -0.000000 1.000000 0.000000
-0.927765 1.000000 8.041722 -0.000000 1.000000 0.000000
0.927311 1.000000 8.488552 -0.000000 1.000000 0.000000
0.927311 1.000000 8.271938 -0.000000 1.000000 0.000000
-0.927765 1.000000 8.271938 -0.000000 1.000000 0.000000
-0.927765 1.000000 8.488552 -0.000000 1.000000 0.000000
0.927311 1.000000 8.929502 -0.000000 1.000000 0.000000
0.927311 1.000000 8.712889 -0.000000 1.000000 0.000000
-0.927765 1.000000 8.712889 -0.000000 1.000000 0.000000
-0.927765 1.000000 8.929502 -0.000000 1.000000 0.000000
0.927311 1.000000 9.264360 -0.000000 1.000000 0.000000
0.927311 1.000000 9.157889 -0.000000 1.000000 0.000000
-0.927765 1.000000 9.157889 -0.000000 1.000000 0.000000
-0.927765 1.000000 9.264360 -0.000000 1.000000 0.000000
1.000000 -1.000000 9.264360 1.000000 0.000001 0.000000
1.000000 -0.927311 0.495792 1.000000 0.000001 0.000000
1.000000 -0.927311 9.264360 1.000000 0.000001 0.000000
1.000000 -1.000000 0.495792 1.000000 0.000001 -0.000000
1.000000 -0.584774 9.264360 1.000000 0.000000 0.000000
1.000000 -0.419944 0.495792 1.000000 0.000000 0.000000
1.000000 -0.419944 9.264360 1.000000 0.000000 0.000000
1.000000 -0.584774 0.495792 1.000000 0.000000 -0.000000
1.000000 -0.079131 9.264360 1.000000 0.000000 0.000000
1.000000 0.078476 0.495792 1.000000 0.000000 0.000000
1.000000 0.078476 9.264360 1.000000 0.000000 0.000000
1.000000 -0.079131 0.495792 1.000000 0.000000 -0.000000
1.000000 0.420172 9.264360 1.000000 0.000000 0.000000
1.000000 0.583558 0.495792 1.000000 0.000000 0.000000
1.000000 0.583558 9.264360 1.000000 0.000000 0.000000
1.000000 0.420172 0.495792 1.000000 0.000000 -0.000000
1.000000 0.927765 9.264360 1.000000 0.000002 0.000000
1.000000 1.000000 0.495792 1.000000 0.000002 0.000000
1.000000 1.000000 9.264360 1.000000 0.000002 0.000000
1.000000 0.927765 0.495792 1.000000 0.000002 -0.000000
1.000000 -1.000000 0.495792 1.000000 0.000000 0.000000
1.000000 -0.106240 -0.000525 1.000000 0.000000 0.000000
1.000000 -0.106240 0.495792 1.000000 0.000000 0.000000
1.000000 -1.000000 -0.000525 1.000000 0.000000 -0.000000
1.000000 0.106458 0.495792 1.000000 0.000000 0.000000
1.000000 1.000000 -0.000525 1.000000 0.000000 0.000000
1.000000 1.000000 0.495792 1.000000 0.000000 0.000000
1.000000 0.106458 -0.000525 1.000000 0.000000 -0.000000
1.000000 -0.106240 0.495792 1.000000 0.000000 0.000000
1.000000 0.106458 0.279178 1.000000 0.000000 0.000000
1.000000 0.106458 0.495792 1.000000 0.000000 0.000000
1.000000 -0.106240 0.279178 1.000000 0.000000 -0.000000
1.000000 -0.927311 0.939475 1.000000 -0.000000 0.000000
1.000000 0.927765 0.722860 1.000000 -0.000000 0.000000
1.000000 0.927765 0.939475 1.000000 -0.000000 0.000000
1.000000 -0.927311 0.722860 1.000000 -0.000000 0.000000
1.000000 -0.927311 1.382385 1.000000 -0.000000 0.000000
1.000000 0.927765 1.165771 1.000000 -0.000000 0.000000
1.000000 0.927765 1.382385 1.000000 -0.000000 0.000000
1.000000 -0.927311 1.165771 1.000000 -0.000000 0.000000
1.000000 -0.927311 1.826863 1.000000 -0.000000 0.000000
1.000000 0.927765 1.610249 1.000000 -0.000000 0.000000
1.000000 0.927765 1.826863 1.000000 -0.000000 0.000000
1.000000 -0.927311 1.610249 1.000000 -0.000000 0.000000
1.000000 -0.927311 2.271342 1.000000 -0.000000 0.000000
1.000000 0.927765 2.054728 1.000000 -0.000000 0.000000
1.000000 0.927765 2.271342 1.000000 -0.000000 0.000000
1.000000 -0.927311 2.054728 1.000000 -0.000000 0.000000
1.000000 -0.927311 2.718172 1.000000 -0.000000 0.000000
1.000000 0.927765 2.501558 1.000000 -0.000000 0.000000
1.000000 0.927765 2.718172 1.000000 -0.000000 0.000000
1.000000 -0.927311 2.501558 1.000000 -0.000000 0.000000
1.000000 -0.927311 3.160298 1.000000 -0.000000 0.000000
1.000000 0.927765 2.943684 1.000000 -0.000000 0.000000
1.000000 0.927765 3.160298 1.000000 -0.000000 0.000000
1.000000 -0.927311 2.943684 1.000000 -0.000000 0.000000
1.000000 -0.927311 3.604777 1.000000 -0.000000 0.000000
1.000000 0.927765 3.388162 1.000000 -0.000000 0.000000
1.000000 0.927765 3.604777 1.000000 -0.000000 0.000000
1.000000 -0.927311 3.388162 1.000000 -0.000000 0.000000
1.000000 -0.927311 4.046903 1.000000 -0.000000 0.000000
1.000000 0.927765 3.830289 1.000000 -0.000000 0.000000
1.000000 0.927765 4.046903 1.000000 -0.000000 0.000000
1.000000 -0.927311 3.830289 1.000000 -0.000000 0.000000
1.000000 -0.927311 4.491382 1.000000 -0.000000 0.000000
1.000000 0.927765 4.274767 1.000000 -0.000000 0.000000
1.000000 0.927765 4.491382 1.000000 -0.000000 0.000000
1.000000 -0.927311 4.274767 1.000000 -0.000000 0.000000
1.000000 -0.927311 4.935860 1.000000 -0.000000 0.000000
1.000000 -0.927311 4.719245 1.000000 -0.000000 0.000000
1.000000 0.927765 4.719245 1.000000 -0.000000 0.000000
1.000000 0.927765 4.935860 1.000000 -0.000000 0.000000
1.000000 -0.927311 5.377987 1.000000 -0.000000 0.000000
1.000000 -0.927311 5.161372 1.000000 -0.000000 0.000000
1.000000 0.927765 5.161372 1.000000 -0.000000 0.000000
1.000000 0.927765 5.377987 1.000000 -0.000000 0.000000
1.000000 -0.927311 5.824817 1.000000 -0.000000 0.000000
1.000000 -0.927311 5.608202 1.000000 -0.000000 0.000000
1.000000 0.927765 5.608202 1.000000 -0.000000 0.000000
1.000000 0.927765 5.824817 1.000000 -0.000000 0.000000
1.000000 -0.927311 6.269296 1.000000 -0.000000 0.000000
1.000000 -0.927311 6.052681 1.000000 -0.000000 0.000000
1.000000 0.927765 6.052681 1.000000 -0.000000 0.000000
1.000000 0.927765 6.269296 1.000000 -0.000000 0.000000
1.000000 -0.927311 7.155901 1.000000 -0.000000 0.000000
1.000000 -0.927311 6.939286 1.000000 -0.000000 0.000000
1.000000 0.927765 6.939286 1.000000 -0.000000 0.000000
1.000000 0.927765 7.155901 1.000000 -0.000000 0.000000
1.000000 -0.927311 6.711422 1.000000 -0.000000 0.000000
1.000000 -0.927311 6.494808 1.000000 -0.000000 0.000000
1.000000 0.927765 6.494808 1.000000 -0.000000 0.000000
1.000000 0.927765 6.711422 1.000000 -0.000000 0.000000
1.000000 -0.927311 7.600771 1.000000 -0.000000 0.000000
1.000000 -0.927311 7.384157 1.000000 -0.000000 0.000000
1.000000 0.927765 7.384157 1.000000 -0.000000 0.000000
1.000000 0.927765 7.600771 1.000000 -0.000000 0.000000
1.000000 -0.927311 8.041722 1.000000 -0.000000 0.000000
1.000000 -0.927311 7.825108 1.000000 -0.000000 0.000000
1.000000 0.927765 7.825108 1.000000 -0.000000 0.000000
1.000000 0.927765 8.041722 1.000000 -0.000000 0.000000
1.000000 -0.927311 8.488552 1.000000 -0.000000 0.000000
1.000000 -0.927311 8.271938 1.000000 -0.000000 0.000000
1.000000 0.927765 8.271938 1.000000 -0.000000 0.000000
1.000000 0.927765 8.488552 1.000000 -0.000000 0.000000
1.000000 -0.927311 8.929502 1.000000 -0.000000 0.000000
1.000000 -0.927311 8.712889 1.000000 -0.000000 0.000000
1.000000 0.927765 8.712889 1.000000 -0.000000 0.000000
1.000000 0.927765 8.929502 1.000000 -0.000000 0.000000
1.000000 -0.927311 9.264360 1.000000 -0.000000 0.000000
1.000000 -0.927311 9.157889 1.000000 -0.000000 0.000000
1.000000 0.927765 9.157889 1.000000 -0.000000 0.000000
1.000000 0.927765 9.264360 1.000000 -0.000000 0.000000
-1.000000 -1.000000 9.264360 -0.000000 -1.000000 -0.000000
-0.927311 -1.000000 0.495792 -0.000000 -1.000000 -0.000000
-0.927311 -1.000000 9.264360 -0.000000 -1.000000 -0.000000
-1.000000 -1.000000 0.495792 0.000000 -1.000000 0.000000
-0.584774 -1.000000 9.264360 -0.000000 -1.000000 -0.000000
-0.419944 -1.000000 0.495792 -0.000000 -1.000000 -0.000000
-0.419944 -1.000000 9.264360 -0.000000 -1.000000 -0.000000
-0.584774 -1.000000 0.495792 0.000000 -1.000000 0.000000
-0.079131 -1.000000 9.264360 -0.000000 -1.000000 -0.000000
0.078476 -1.000000 0.495792 -0.000000 -1.000000 -0.000000
0.078476 -1.000000 9.264360 -0.000000 -1.000000 -0.000000
-0.079131 -1.000000 0.495792 0.000000 -1.000000 0.000000
0.420172 -1.000000 9.264360 -0.000000 -1.000000 -0.000000
0.583558 -1.000000 0.495792 -0.000000 -1.000000 -0.000000
0.583558 -1.000000 9.264360 -0.000000 -1.000000 -0.000000
0.420172 -1.000000 0.495792 0.000000 -1.000000 0.000000
0.927765 -1.000000 9.264360 -0.000000 -1.000000 -0.000000
1.000000 -1.000000 0.495792 -0.000000 -1.000000 -0.000000
1.000000 -1.000000 9.264360 -0.000000 -1.000000 -0.000000
0.927765 -1.000000 0.495792 0.000000 -1.000000 0.000000
-0.106240 -1.000000 -0.000525 -0.000000 -1.000000 -0.000000
-0.106240 -1.000000 0.495792 -0.000000 -1.000000 -0.000000
-1.000000 -1.000000 -0.000525 0.000000 -1.000000 0.000000
0.106458 -1.000000 0.495792 -0.000000 -1.000000 -0.000000
1.000000 -1.000000 -0.000525 -0.000000 -1.000000 -0.000000
0.106458 -1.000000 -0.000525 0.000000 -1.000000 0.000000
-0.106240 -1.000000 0.495792 -0.000000 -1.000000 -0.000000
0.106458 -1.000000 0.279178 -0.000000 -1.000000 -0.000000
0.106458 -1.000000 0.495792 -0.000000 -1.000000 -0.000000
-0.106240 -1.000000 0.279178 0.000000 -1.000000 0.000000
-0.927311 -1.000000 0.939475 -0.000000 -1.000000 -0.000000
0.927765 -1.000000 0.722860 -0.000000 -1.000000 -0.000000
0.927765 -1.000000 0.939475 -0.000000 -1.000000 -0.000000
-0.927311 -1.000000 0.722860 0.000000 -1.000000 0.000000
-0.927311 -1.000000 1.382385 -0.000000 -1.000000 -0.000000
0.927765 -1.000000 1.165771 -0.000000 -1.000000 -0.000000
0.927765 -1.000000 1.382385 -0.000000 -1.000000 -0.000000
-0.927311 -1.000000 1.165771 0.000000 -1.000000 0.000000
-0.927311 -1.000000 1.826863 -0.000000 -1.000000 -0.000000
0.927765 -1.000000 1.610249 -0.000000 -1.000000 -0.000000
0.927765 -1.000000 1.826863 -0.000000 -1.000000 -0.000000
-0.927311 -1.000000 1.610249 0.000000 -1.000000 0.000000
-0.927311 -1.000000 2.271342 -0.000000 -1.000000 -0.000000
0.927765 -1.000000 2.054728 -0.000000 -1.000000 -0.000000
0.927765 -1.000000 2.271342 -0.000000 -1.000000 -0.000000
-0.927311 -1.000000 2.054728 0.000000 -1.000000 0.000000
-0.927311 -1.000000 2.718172 -0.000000 -1.000000 -0.000000
0.927765 -1.000000 2.501558 -0.000000 -1.000000 -0.000000
0.927765 -1.000000 2.718172 -0.000000 -1.000000 -0.000000
-0.927311 -1.000000 2.501558 0.000000 -1.000000 0.000000
-0.927311 -1.000000 3.160298 -0.000000 -1.000000 -0.000000
0.927765 -1.000000 2.943684 -0.000000 -1.000000 -0.000000
0.927765 -1.000000 3.160298 -0.000000 -1.000000 -0.000000
-0.927311 -1.000000 2.943684 0.000000 -1.000000 0.000000
-0.927311 -1.000000 3.604777 -0.000000 -1.000000 -0.000000
0.927765 -1.000000 3.388162 -0.000000 -1.000000 -0.000000
0.927765 -1.000000 3.604777 -0.000000 -1.000000 -0.000000
-0.927311 -1.000000 3.388162 0.000000 -1.000000 0.000000
-0.927311 -1.000000 4.046903 -0.000000 -1.000000 -0.000000
0.927765 -1.000000 3.830289 -0.000000 -1.000000 -0.000000
0.927765 -1.000000 4.046903 -0.000000 -1.000000 -0.000000
-0.927311 -1.000000 3.830289 0.000000 -1.000000 0.000000
-0.927311 -1.000000 4.491382 -0.000000 -1.000000 -0.000000
0.927765 -1.000000 4.274767 -0.000000 -1.000000 -0.000000
0.927765 -1.000000 4.491382 -0.000000 -1.000000 -0.000000
-0.927311 -1.000000 4.274767 0.000000 -1.000000 0.000000
-0.927311 -1.000000 4.935860 0.000000 -1.000000 0.000000
-0.927311 -1.000000 4.719245 0.000000 -1.000000 0.000000
0.927765 -1.000000 4.719245 0.000000 -1.000000 0.000000
0.927765 -1.000000 4.935860 -0.000000 -1.000000 -0.000000
-0.927311 -1.000000 5.377987 0.000000 -1.000000 0.000000
-0.927311 -1.000000 5.161372 0.000000 -1.000000 0.000000
0.927765 -1.000000 5.161372 0.000000 -1.000000 0.000000
0.927765 -1.000000 5.377987 -0.000000 -1.000000 -0.000000
-0.927311 -1.000000 5.824817 0.000000 -1.000000 0.000000
-0.927311 -1.000000 5.608202 0.000000 -1.000000 0.000000
0.927765 -1.000000 5.608202 0.000000 -1.000000 0.000000
0.927765 -1.000000 5.824817 -0.000000 -1.000000 -0.000000
-0.927311 -1.000000 6.269296 0.000000 -1.000000 0.000000
-0.927311 -1.000000 6.052681 0.000000 -1.000000 0.000000
0.927765 -1.000000 6.052681 0.000000 -1.000000 0.000000
0.927765 -1.000000 6.269296 -0.000000 -1.000000 -0.000000
-0.927311 -1.000000 7.155901 0.000000 -1.000000 0.000000
-0.927311 -1.000000 6.939286 0.000000 -1.000000 0.000000
0.927765 -1.000000 6.939286 0.000000 -1.000000 0.000000
0.927765 -1.000000 7.155901 -0.000000 -1.000000 -0.000000
-0.927311 -1.000000 6.711422 0.000000 -1.000000 0.000000
-0.927311 -1.000000 6.494808 0.000000 -1.000000 0.000000
0.927765 -1.000000 6.494808 0.000000 -1.000000 0.000000
0.927765 -1.000000 6.711422 -0.000000 -1.000000 -0.000000
-0.927311 -1.000000 7.600771 0.000000 -1.000000 0.000000
-0.927311 -1.000000 7.384157 0.000000 -1.000000 0.000000
0.927765 -1.000000 7.384157 0.000000 -1.000000 0.000000
0.927765 -1.000000 7.600771 -0.000000 -1.000000 -0.000000
-0.927311 -1.000000 8.041722 0.000000 -1.000000 0.000000
-0.927311 -1.000000 7.825108 0.000000 -1.000000 0.000000
0.927765 -1.000000 7.825108 0.000000 -1.000000 0.000000
0.927765 -1.000000 8.041722 -0.000000 -1.000000 -0.000000
-0.927311 -1.000000 8.488552 0.000000 -1.000000 0.000000
-0.927311 -1.000000 8.271938 0.000000 -1.000000 0.000000
0.927765 -1.000000 8.271938 0.000000 -1.000000 0.000000
0.927765 -1.000000 8.488552 -0.000000 -1.000000 -0.000000
-0.927311 -1.000000 8.929502 0.000000 -1.000000 0.000000
-0.927311 -1.000000 8.712889 0.000000 -1.000000 0.000000
0.927765 -1.000000 8.712889 0.000000 -1.000000 0.000000
0.927765 -1.000000 8.929502 -0.000000 -1.000000 -0.000000
-0.927311 -1.000000 9.264360 0.000000 -1.000000 0.000000
-0.927311 -1.000000 9.157889 0.000000 -1.000000 0.000000
0.927765 -1.000000 9.157889 0.000000 -1.000000 0.000000
0.927765 -1.000000 9.264360 -0.000000 -1.000000 -0.000000
1.000000 -1.000000 0.385869 -0.000000 0.000000 1.000000
-1.000000 1.000000 0.385869 -0.000000 0.000000 1.000000
-1.000000 -1.000000 0.385869 -0.000000 0.000000 1.000000
1.000000 1.000000 0.385869 -0.000000 0.000000 1.000000
1.000000 -1.000000 0.829793 -0.000000 0.000000 1.000000
-1.000000 1.000000 0.829793 -0.000000 0.000000 1.000000
-1.000000 -1.000000 0.829793 -0.000000 0.000000 1.000000
1.000000 1.000000 0.829793 -0.000000 0.000000 1.000000
1.000000 -1.000000 1.273718 -0.000000 0.000000 1.000000
-1.000000 1.000000 1.273718 -0.000000 0.000000 1.000000
-1.000000 -1.000000 1.273718 -0.000000 0.000000 1.000000
1.000000 1.000000 1.273718 -0.000000 0.000000 1.000000
1.000000 -1.000000 1.717643 -0.000000 0.000000 1.000000
-1.000000 1.000000 1.717643 -0.000000 0.000000 1.000000
-1.000000 -1.000000 1.717643 -0.000000 0.000000 1.000000
1.000000 1.000000 1.717643 -0.000000 0.000000 1.000000
1.000000 -1.000000 2.161567 -0.000000 0.000000 1.000000
-1.000000 1.000000 2.161567 -0.000000 0.000000 1.000000
-1.000000 -1.000000 2.161567 -0.000000 0.000000 1.000000
1.000000 1.000000 2.161567 -0.000000 0.000000 1.000000
1.000000 -1.000000 2.605491 -0.000000 0.000000 1.000000
-1.000000 1.000000 2.605491 -0.000000 0.000000 1.000000
-1.000000 -1.000000 2.605491 -0.000000 0.000000 1.000000
1.000000 1.000000 2.605491 -0.000000 0.000000 1.000000
1.000000 -1.000000 3.049416 -0.000000 0.000000 1.000000
-1.000000 1.000000 3.049416 -0.000000 0.000000 1.000000
-1.000000 -1.000000 3.049416 -0.000000 0.000000 1.000000
1.000000 1.000000 3.049416 -0.000000 0.000000 1.000000
1.000000 -1.000000 3.493340 -0.000000 0.000000 1.000000
-1.000000 1.000000 3.493340 -0.000000 0.000000 1.000000
-1.000000 -1.000000 3.493340 -0.000000 0.000000 1.000000
1.000000 1.000000 3.493340 -0.000000 0.000000 1.000000
1.000000 -1.000000 3.937264 -0.000000 0.000000 1.000000
-1.000000 1.000000 3.937264 -0.000000 0.000000 1.000000
-1.000000 -1.000000 3.937264 -0.000000 0.000000 1.000000
1.000000 1.000000 3.937264 -0.000000 0.000000 1.000000
1.000000 -1.000000 4.381189 -0.000000 0.000000 1.000000
-1.000000 1.000000 4.381189 -0.000000 0.000000 1.000000
-1.000000 -1.000000 4.381189 -0.000000 0.000000 1.000000
1.000000 1.000000 4.381189 -0.000000 0.000000 1.000000
1.000000 -1.000000 4.825114 -0.000000 0.000000 1.000000
-1.000000 1.000000 4.825114 -0.000000 0.000000 1.000000
-1.000000 -1.000000 4.825114 -0.000000 0.000000 1.000000
1.000000 1.000000 4.825114 -0.000000 0.000000 1.000000
1.000000 -1.000000 5.269038 -0.000000 0.000000 1.000000
-1.000000 1.000000 5.269038 -0.000000 0.000000 1.000000
-1.000000 -1.000000 5.269038 -0.000000 0.000000 1.000000
1.000000 1.000000 5.269038 -0.000000 0.000000 1.000000
1.000000 -1.000000 5.712963 -0.000000 0.000000 1.000000
-1.000000 1.000000 5.712963 -0.000000 0.000000 1.000000
-1.000000 -1.000000 5.712963 -0.000000 0.000000 1.000000
1.000000 1.000000 5.712963 -0.000000 0.000000 1.000000
1.000000 -1.000000 6.156887 -0.000000 0.000000 1.000000
-1.000000 1.000000 6.156887 -0.000000 0.000000 1.000000
-1.000000 -1.000000 6.156887 -0.000000 0.000000 1.000000
1.000000 1.000000 6.156887 -0.000000 0.000000 1.000000
1.000000 -1.000000 6.600811 -0.000000 0.000000 1.000000
-1.000000 1.000000 6.600811 -0.000000 0.000000 1.000000
-1.000000 -1.000000 6.600811 -0.000000 0.000000 1.000000
1.000000 1.000000 6.600811 -0.000000 0.000000 1.000000
1.000000 -1.000000 7.044736 -0.000000 0.000000 1.000000
-1.000000 1.000000 7.044736 -0.000000 0.000000 1.000000
-1.000000 -1.000000 7.044736 -0.000000 0.000000 1.000000
1.000000 1.000000 7.044736 -0.000000 0.000000 1.000000
1.000000 -1.000000 7.488660 -0.000000 0.000000 1.000000
-1.000000 1.000000 7.488660 -0.000000 0.000000 1.000000
-1.000000 -1.000000 7.488660 -0.000000 0.000000 1.000000
1.000000 1.000000 7.488660 -0.000000 0.000000 1.000000
1.000000 -1.000000 7.932585 -0.000000 0.000000 1.000000
-1.000000 1.000000 7.932585 -0.000000 0.000000 1.000000
-1.000000 -1.000000 7.932585 -0.000000 0.000000 1.000000
1.000000 1.000000 7.932585 -0.000000 0.000000 1.000000
1.000000 -1.000000 8.376509 -0.000000 0.000000 1.000000
-1.000000 1.000000 8.376509 -0.000000 0.000000 1.000000
-1.000000 -1.000000 8.376509 -0.000000 0.000000 1.000000
1.000000 1.000000 8.376509 -0.000000 0.000000 1.000000
1.000000 -1.000000 8.820434 -0.000000 0.000000 1.000000
-1.000000 1.000000 8.820434 -0.000000 0.000000 1.000000
-1.000000 -1.000000 8.820434 -0.000000 0.000000 1.000000
1.000000 1.000000 8.820434 -0.000000 0.000000 1.000000
1.000000 -1.000000 9.264360 -0.000001 0.000000 1.000000
-1.000000 1.000000 9.264358 -0.000001 0.000000 1.000000
-1.000000 -1.000000 9.264358 -0.000001 0.000000 1.000000
1.000000 -1.000000 9.264360 -0.000000 0.000001 1.000000
1.000000 1.000000 9.264358 -0.000000 0.000001 1.000000
-1.000000 1.000000 9.264358 -0.000000 0.000001 1.000000
1.000000 -1.000000 -0.000525 -0.000000 0.000000 1.000000
-1.000000 1.000000 -0.000525 -0.000000 0.000000 1.000000
-1.000000 -1.000000 -0.000525 -0.000000 0.000000 1.000000
1.000000 1.000000 -0.000525 -0.000000 0.000000 1.000000
3 0 1 2
3 0 3 1
3 4 5 6
3 4 7 5
3 8 9 10
3 8 11 9
3 12 13 14
3 12 15 13
3 16 17 18
3 16 19 17
3 3 20 21
3 3 22 20
3 23 24 17
3 23 25 24
3 26 27 28
3 26 29 27
3 30 31 32
3 30 33 31
3 34 35 36
3 34 37 35
3 38 39 40
3 38 41 39
3 42 43 44
3 42 45 43
3 46 47 48
3 46 49 47
3 50 51 52
3 50 53 51
3 54 55 56
3 54 57 55
3 58 59 60
3 58 61 59
3 62 63 64
3 62 65 63
3 66 67 68
3 66 68 69
3 70 71 72
3 70 72 73
3 74 75 76
3 74 76 77
3 78 79 80
3 78 80 81
3 82 83 84
3 82 84 85
3 86 87 88
3 86 88 89
3 90 91 92
3 90 92 93
3 94 95 96
3 94 96 97
3 98 99 100
3 98 100 101
3 102 103 104
3 102 104 105
3 106 107 108
3 106 108 109
3 110 111 112
3 110 113 111
3 114 115 116
3 114 117 115
3 118 119 120
3 118 121 119
3 122 123 124
3 122 125 123
3 126 127 128
3 126 129 127
3 130 131 132
3 130 133 131
3 134 135 136
3 134 137 135
3 138 139 140
3 138 141 139
3 142 143 144
3 142 145 143
3 146 147 148
3 146 149 147
3 150 151 152
3 150 153 151
3 154 155 156
3 154 157 155
3 158 159 160
3 158 161 159
3 162 163 164
3 162 165 163
3 166 167 168
3 166 169 167
3 170 171 172
3 170 173 171
3 174 175 176
3 174 177 175
3 178 179 180
3 178 180 181
3 182 183 184
3 182 184 185
3 186 187 188
3 186 188 189
3 190 191 192
3 190 192 193
3 194 195 196
3 194 196 197
3 198 199 200
3 198 200 201
3 202 203 204
3 202 204 205
3 206 207 208
3 206 208 209
3 210 211 212
3 210 212 213
3 214 215 216
3 214 216 217
3 218 219 220
3 218 220 221
3 222 223 224
3 222 225 223
3 226 227 228
3 226 229 227
3 230 231 232
3 230 233 231
3 234 235 236
3 234 237 235
3 238 239 240
3 238 241 239
3 242 243 244
3 242 245 243
3 246 247 248
3 246 249 247
3 250 251 252
3 250 253 251
3 254 255 256
3 254 257 255
3 258 259 260
3 258 261 259
3 262 263 264
3 262 265 263
3 266 267 268
3 266 269 267
3 270 271 272
3 270 273 271
3 274 275 276
3 274 277 275
3 278 279 280
3 278 281 279
3 282 283 284
3 282 285 283
3 286 287 288
3 286 289 287
3 290 291 292
3 290 292 293
3 294 295 296
3 294 296 297
3 298 299 300
3 298 300 301
3 302 303 304
3 302 304 305
3 306 307 308
3 306 308 309
3 310 311 312
3 310 312 313
3 314 315 316
3 314 316 317
3 318 319 320
3 318 320 321
3 322 323 324
3 322 324 325
3 326 327 328
3 326 328 329
3 330 331 332
3 330 332 333
3 334 335 336
3 334 337 335
3 338 339 340
3 338 341 339
3 342 343 344
3 342 345 343
3 346 347 348
3 346 349 347
3 350 351 352
3 350 353 351
3 337 354 355
3 337 356 354
3 357 358 351
3 357 359 358
3 360 361 362
3 360 363 361
3 364 365 366
3 364 367 365
3 368 369 370
3 368 371 369
3 372 373 374
3 372 375 373
3 376 377 378
3 376 379 377
3 380 381 382
3 380 383 381
3 384 385 386
3 384 387 385
3 388 389 390
3 388 391 389
3 392 393 394
3 392 395 393
3 396 397 398
3 396 399 397
3 400 401 402
3 400 402 403
3 404 405 406
3 404 406 407
3 408 409 410
3 408 410 411
3 412 413 414
3 412 414 415
3 416 417 418
3 416 418 419
3 420 421 422
3 420 422 423
3 424 425 426
3 424 426 427
3 428 429 430
3 428 430 431
3 432 433 434
3 432 434 435
3 436 437 438
3 436 438 439
3 440 441 442
3 440 442 443
3 444 445 446
3 444 447 445
3 448 449 450
3 448 451 449
3 452 453 454
3 452 455 453
3 456 457 458
3 456 459 457
3 460 461 462
3 460 463 461
3 464 465 466
3 464 467 465
3 468 469 470
3 468 471 469
3 472 473 474
3 472 475 473
3 476 477 478
3 476 479 477
3 480 481 482
3 480 483 481
3 484 485 486
3 484 487 485
3 488 489 490
3 488 491 489
3 492 493 494
3 492 495 493
3 496 497 498
3 496 499 497
3 500 501 502
3 500 503 501
3 504 505 506
3 504 507 505
3 508 509 510
3 508 511 509
3 512 513 514
3 512 515 513
3 516 517 518
3 516 519 517
3 520 521 522
3 520 523 521
3 524 525 526
3 527 528 529
3 530 531 532
3 530 533 531
