ply
format ascii 1.0
comment Created by Blender 3.0.1 - www.blender.org
element vertex 20
property float x
property float y
property float z
property float nx
property float ny
property float nz
element face 10
property list uchar uint vertex_indices
end_header
-0.016292 0.031763 0.208741 0.000000 1.000000 -0.000000
0.015230 0.031763 0.204717 0.000000 1.000000 -0.000000
-0.016292 0.031763 0.204717 0.000000 1.000000 -0.000000
0.015230 0.031763 0.208741 0.000000 1.000000 -0.000000
0.007531 0.031763 0.220812 -0.000000 1.000000 0.000000
-0.008230 0.031763 0.212764 -0.000000 1.000000 0.000000
-0.008230 0.031763 0.220812 -0.000000 1.000000 0.000000
-0.024538 0.031763 0.233070 0.000000 1.000000 -0.000000
-0.008230 0.031763 0.225021 0.000000 1.000000 -0.000000
-0.024538 0.031763 0.225021 0.000000 1.000000 -0.000000
0.007531 0.031763 0.204717 -0.000000 1.000000 0.000000
-0.008230 0.031763 0.200602 -0.000000 1.000000 0.000000
-0.008230 0.031763 0.204717 -0.000000 1.000000 0.000000
0.023110 0.031763 0.225021 0.000000 1.000000 0.000000
0.007531 0.031763 0.233070 0.000000 1.000000 0.000000
0.023110 0.031763 0.233070 0.000000 1.000000 0.000000
0.007531 0.031763 0.212764 0.000000 1.000000 0.000000
-0.008230 0.031763 0.233070 0.000000 1.000000 -0.000000
0.007531 0.031763 0.200602 0.000000 1.000000 0.000000
0.007531 0.031763 0.225021 -0.000000 1.000000 0.000000
3 0 1 2
3 0 3 1
3 4 5 6
3 7 8 9
3 10 11 12
3 13 14 15
3 4 16 5
3 7 17 8
3 10 18 11
3 13 19 14
