ply
format ascii 1.0
comment Created by Blender 3.0.1 - www.blender.org
element vertex 120
property float x
property float y
property float z
property float nx
property float ny
property float nz
element face 60
property list uchar uint vertex_indices
end_header
-0.031887 0.031229 0.253008 -0.000000 1.000000 0.000000
0.031887 0.031229 0.188257 -0.000000 1.000000 0.000000
-0.031887 0.031229 0.188257 -0.000000 1.000000 0.000000
0.031887 0.031229 0.253008 1.000000 0.000000 0.000000
0.031887 -0.031230 0.188257 1.000000 0.000000 0.000000
0.031887 0.031229 0.188257 1.000000 0.000000 0.000000
0.031887 -0.031230 0.253008 0.000000 -1.000000 0.000000
-0.031887 -0.031230 0.188257 0.000000 -1.000000 0.000000
0.031887 -0.031230 0.188257 0.000000 -1.000000 0.000000
-0.031887 -0.031230 0.253008 -1.000000 -0.000000 0.000000
-0.031887 0.031229 0.188257 -1.000000 -0.000000 0.000000
-0.031887 -0.031230 0.188257 -1.000000 -0.000000 0.000000
0.031887 -0.031230 0.188257 0.000000 -0.000000 -1.000000
-0.031887 0.031229 0.188257 0.000000 -0.000000 -1.000000
0.031887 0.031229 0.188257 0.000000 -0.000000 -1.000000
0.031887 0.031229 0.253008 0.000000 -0.000000 1.000000
-0.031887 -0.031230 0.253008 0.000000 -0.000000 1.000000
0.031887 -0.031230 0.253008 0.000000 -0.000000 1.000000
0.000889 0.020994 0.097043 -0.000000 1.000000 0.000000
0.036537 0.020994 0.000001 -0.000000 1.000000 0.000000
0.000889 0.020994 0.000001 -0.000000 1.000000 0.000000
0.036537 0.020994 0.097043 1.000000 0.000000 -0.000000
0.036537 -0.020995 0.000001 1.000000 0.000000 -0.000000
0.036537 0.020994 0.000001 1.000000 0.000000 -0.000000
0.036537 -0.020995 0.097043 0.000000 -1.000000 0.000000
0.000889 -0.020995 0.000001 0.000000 -1.000000 0.000000
0.036537 -0.020995 0.000001 0.000000 -1.000000 0.000000
0.000889 -0.020995 0.097043 -1.000000 -0.000000 0.000000
0.000889 0.020994 0.000001 -1.000000 -0.000000 0.000000
0.000889 -0.020995 0.000001 -1.000000 -0.000000 0.000000
-0.035969 0.020994 0.097043 -0.000000 1.000000 0.000000
-0.000322 0.020994 0.000001 -0.000000 1.000000 0.000000
-0.035969 0.020994 0.000001 -0.000000 1.000000 0.000000
-0.000322 0.020994 0.097043 1.000000 0.000000 0.000000
-0.000322 -0.020995 0.000001 1.000000 0.000000 0.000000
-0.000322 0.020994 0.000001 1.000000 0.000000 0.000000
-0.000322 -0.020995 0.097043 0.000000 -1.000000 0.000000
-0.035969 -0.020995 0.000001 0.000000 -1.000000 0.000000
-0.000322 -0.020995 0.000001 0.000000 -1.000000 0.000000
-0.035969 -0.020995 0.097043 -1.000000 0.000000 0.000000
-0.035969 0.020994 0.000001 -1.000000 0.000000 0.000000
-0.035969 -0.020995 0.000001 -1.000000 0.000000 0.000000
-0.037363 0.020994 0.194034 -0.000000 1.000000 0.000000
0.037363 0.020994 0.096991 -0.000000 1.000000 0.000000
-0.037363 0.020994 0.096991 -0.000000 1.000000 0.000000
0.037363 0.020994 0.194034 1.000000 0.000000 -0.000000
0.037363 -0.020995 0.096991 1.000000 0.000000 -0.000000
0.037363 0.020994 0.096991 1.000000 0.000000 -0.000000
0.037363 -0.020995 0.194034 0.000000 -1.000000 0.000000
-0.037363 -0.020995 0.096991 0.000000 -1.000000 0.000000
0.037363 -0.020995 0.096991 0.000000 -1.000000 0.000000
-0.037363 -0.020995 0.194034 -1.000000 0.000000 0.000000
-0.037363 0.020994 0.096991 -1.000000 0.000000 0.000000
-0.037363 -0.020995 0.096991 -1.000000 0.000000 0.000000
0.037363 -0.020995 0.096991 0.000000 -0.000000 -1.000000
-0.037363 0.020994 0.096991 0.000000 -0.000000 -1.000000
0.037363 0.020994 0.096991 0.000000 -0.000000 -1.000000
0.037363 0.020994 0.194034 0.000000 -0.000000 1.000000
-0.037363 -0.020995 0.194034 0.000000 -0.000000 1.000000
0.037363 -0.020995 0.194034 0.000000 -0.000000 1.000000
0.037045 0.018307 0.185010 -0.000000 1.000000 0.000000
0.068130 0.018307 0.100388 -0.000000 1.000000 0.000000
0.037045 0.018307 0.100388 -0.000000 1.000000 0.000000
0.068130 0.018307 0.185010 1.000000 0.000000 -0.000000
0.068130 -0.018308 0.100388 1.000000 0.000000 -0.000000
0.068130 0.018307 0.100388 1.000000 0.000000 -0.000000
0.068130 -0.018308 0.185010 0.000000 -1.000000 0.000000
0.037045 -0.018308 0.100388 0.000000 -1.000000 0.000000
0.068130 -0.018308 0.100388 0.000000 -1.000000 0.000000
0.068130 -0.018308 0.100388 0.000000 -0.000000 -1.000000
0.037045 0.018307 0.100388 0.000000 -0.000000 -1.000000
0.068130 0.018307 0.100388 0.000000 -0.000000 -1.000000
0.068130 0.018307 0.185010 0.000000 -0.000000 1.000000
0.037045 -0.018308 0.185010 0.000000 -0.000000 1.000000
0.068130 -0.018308 0.185010 0.000000 -0.000000 1.000000
-0.068938 0.018307 0.185010 -0.000000 1.000000 0.000000
-0.037853 0.018307 0.100388 -0.000000 1.000000 0.000000
-0.068938 0.018307 0.100388 -0.000000 1.000000 0.000000
-0.037853 -0.018308 0.185010 0.000000 -1.000000 0.000000
-0.068938 -0.018308 0.100388 0.000000 -1.000000 0.000000
-0.037853 -0.018308 0.100388 0.000000 -1.000000 0.000000
-0.068938 -0.018308 0.185010 -1.000000 0.000000 0.000000
-0.068938 0.018307 0.100388 -1.000000 0.000000 0.000000
-0.068938 -0.018308 0.100388 -1.000000 0.000000 0.000000
-0.037853 -0.018308 0.100388 0.000000 -0.000000 -1.000000
-0.068938 0.018307 0.100388 0.000000 -0.000000 -1.000000
-0.037853 0.018307 0.100388 0.000000 -0.000000 -1.000000
-0.037853 0.018307 0.185010 0.000000 -0.000000 1.000000
-0.068938 -0.018308 0.185010 0.000000 -0.000000 1.000000
-0.037853 -0.018308 0.185010 0.000000 -0.000000 1.000000
0.031887 0.031229 0.253008 -0.000000 1.000000 0.000000
0.031887 -0.031230 0.253008 1.000000 0.000000 -0.000000
-0.031887 -0.031230 0.253008 0.000000 -1.000000 0.000000
-0.031887 0.031229 0.253008 -1.000000 -0.000000 0.000000
-0.031887 -0.031230 0.188257 0.000000 0.000000 -1.000000
-0.031887 0.031229 0.253008 0.000000 -0.000000 1.000000
0.036537 0.020994 0.097043 -0.000000 1.000000 0.000000
0.036537 -0.020995 0.097043 1.000000 0.000000 0.000000
0.000889 -0.020995 0.097043 0.000000 -1.000000 0.000000
0.000889 0.020994 0.097043 -1.000000 -0.000000 0.000000
-0.000322 0.020994 0.097043 -0.000000 1.000000 0.000000
-0.000322 -0.020995 0.097043 1.000000 0.000000 -0.000000
-0.035969 -0.020995 0.097043 0.000000 -1.000000 0.000000
-0.035969 0.020994 0.097043 -1.000000 0.000000 0.000000
0.037363 0.020994 0.194034 -0.000000 1.000000 0.000000
0.037363 -0.020995 0.194034 1.000000 0.000000 0.000000
-0.037363 -0.020995 0.194034 0.000000 -1.000000 0.000000
-0.037363 0.020994 0.194034 -1.000000 0.000000 0.000000
-0.037363 -0.020995 0.096991 0.000000 0.000000 -1.000000
-0.037363 0.020994 0.194034 0.000000 0.000000 1.000000
0.068130 0.018307 0.185010 -0.000000 1.000000 0.000000
0.068130 -0.018308 0.185010 1.000000 0.000000 0.000000
0.037045 -0.018308 0.185010 0.000000 -1.000000 0.000000
0.037045 -0.018308 0.100388 0.000000 0.000000 -1.000000
0.037045 0.018307 0.185010 0.000000 0.000000 1.000000
-0.037853 0.018307 0.185010 -0.000000 1.000000 0.000000
-0.068938 -0.018308 0.185010 0.000000 -1.000000 0.000000
-0.068938 0.018307 0.185010 -1.000000 0.000000 0.000000
-0.068938 -0.018308 0.100388 0.000000 0.000000 -1.000000
-0.068938 0.018307 0.185010 0.000000 0.000000 1.000000
3 0 1 2
3 3 4 5
3 6 7 8
3 9 10 11
3 12 13 14
3 15 16 17
3 18 19 20
3 21 22 23
3 24 25 26
3 27 28 29
3 30 31 32
3 33 34 35
3 36 37 38
3 39 40 41
3 42 43 44
3 45 46 47
3 48 49 50
3 51 52 53
3 54 55 56
3 57 58 59
3 60 61 62
3 63 64 65
3 66 67 68
3 69 70 71
3 72 73 74
3 75 76 77
3 78 79 80
3 81 82 83
3 84 85 86
3 87 88 89
3 0 90 1
3 3 91 4
3 6 92 7
3 9 93 10
3 12 94 13
3 15 95 16
3 18 96 19
3 21 97 22
3 24 98 25
3 27 99 28
3 30 100 31
3 33 101 34
3 36 102 37
3 39 103 40
3 42 104 43
3 45 105 46
3 48 106 49
3 51 107 52
3 54 108 55
3 57 109 58
3 60 110 61
3 63 111 64
3 66 112 67
3 69 113 70
3 72 114 73
3 75 115 76
3 78 116 79
3 81 117 82
3 84 118 85
3 87 119 88
