ply
format ascii 1.0
comment Created by Blender 3.0.1 - www.blender.org
element vertex 126
property float x
property float y
property float z
property float nx
property float ny
property float nz
element face 60
property list uchar uint vertex_indices
end_header
-0.016116 0.015784 0.270893 -0.000000 0.982979 0.183721
0.031887 0.031229 0.188257 -0.000000 0.982979 0.183721
-0.031887 0.031229 0.188257 -0.000000 0.982979 0.183721
0.016117 0.015784 0.270893 0.982273 0.000000 0.187454
0.031887 -0.031230 0.188257 0.982273 0.000000 0.187454
0.031887 0.031229 0.188257 0.982273 0.000000 0.187454
0.016117 -0.015785 0.270893 0.000000 -0.982979 0.183721
-0.031887 -0.031230 0.188257 0.000000 -0.982979 0.183721
0.031887 -0.031230 0.188257 0.000000 -0.982979 0.183721
-0.016116 -0.015785 0.270893 -0.982273 -0.000000 0.187456
-0.031887 0.031229 0.188257 -0.982273 -0.000000 0.187456
-0.031887 -0.031230 0.188257 -0.982273 -0.000000 0.187456
0.031887 -0.031230 0.188257 0.000000 -0.000000 -1.000000
-0.031887 0.031229 0.188257 0.000000 -0.000000 -1.000000
0.031887 0.031229 0.188257 0.000000 -0.000000 -1.000000
0.016117 0.015784 0.270893 0.000000 -0.000000 1.000000
-0.016116 -0.015785 0.270893 0.000000 -0.000000 1.000000
0.016117 -0.015785 0.270893 0.000000 -0.000000 1.000000
0.000889 0.020994 0.097043 -0.000000 0.998294 -0.058384
0.026737 0.015319 0.000001 -0.000000 0.998294 -0.058384
0.000726 0.015319 0.000001 -0.000000 0.998294 -0.058384
0.036537 0.020994 0.097043 0.994939 0.000000 -0.100477
0.026737 -0.015319 0.000001 0.994939 0.000000 -0.100477
0.026737 0.015319 0.000001 0.994939 0.000000 -0.100477
0.036537 -0.020995 0.097043 0.000000 -0.998294 -0.058384
0.000726 -0.015319 0.000001 0.000000 -0.998294 -0.058384
0.026737 -0.015319 0.000001 0.000000 -0.998294 -0.058384
0.000889 -0.020995 0.097043 -0.999999 -0.000000 0.001686
0.000726 0.015319 0.000001 -0.999999 -0.000000 0.001686
0.000726 -0.015319 0.000001 -0.999999 -0.000000 0.001686
-0.035969 0.020994 0.097043 -0.000000 0.998294 -0.058384
-0.000158 0.015319 0.000001 -0.000000 0.998294 -0.058384
-0.026169 0.015319 0.000001 -0.000000 0.998294 -0.058384
-0.000322 0.020994 0.097043 0.999999 0.000000 0.001688
-0.000158 -0.015319 0.000001 0.999999 0.000000 0.001688
-0.000158 0.015319 0.000001 0.999999 0.000000 0.001688
-0.000322 -0.020995 0.097043 0.000000 -0.998294 -0.058384
-0.026169 -0.015319 0.000001 0.000000 -0.998294 -0.058384
-0.000158 -0.015319 0.000001 0.000000 -0.998294 -0.058384
-0.035969 -0.020995 0.097043 -0.994939 -0.000000 -0.100479
-0.026169 0.015319 0.000001 -0.994939 -0.000000 -0.100479
-0.026169 -0.015319 0.000001 -0.994939 -0.000000 -0.100479
-0.037363 0.020994 0.194034 -0.000000 1.000000 0.000000
0.037363 0.020994 0.096991 -0.000000 1.000000 0.000000
-0.037363 0.020994 0.096991 -0.000000 1.000000 0.000000
0.037363 0.020994 0.194034 1.000000 0.000000 -0.000000
0.037363 -0.020995 0.096991 1.000000 0.000000 -0.000000
0.037363 0.020994 0.096991 1.000000 0.000000 -0.000000
0.037363 -0.020995 0.194034 0.000000 -1.000000 0.000000
-0.037363 -0.020995 0.096991 0.000000 -1.000000 0.000000
0.037363 -0.020995 0.096991 0.000000 -1.000000 0.000000
-0.037363 -0.020995 0.194034 -1.000000 0.000000 0.000000
-0.037363 0.020994 0.096991 -1.000000 0.000000 0.000000
-0.037363 -0.020995 0.096991 -1.000000 0.000000 0.000000
0.037363 -0.020995 0.096991 0.000000 -0.000000 -1.000000
-0.037363 0.020994 0.096991 0.000000 -0.000000 -1.000000
0.037363 0.020994 0.096991 0.000000 -0.000000 -1.000000
0.037363 0.020994 0.194034 0.000000 -0.000000 1.000000
-0.037363 -0.020995 0.194034 0.000000 -0.000000 1.000000
0.037363 -0.020995 0.194034 0.000000 -0.000000 1.000000
0.037045 0.018307 0.185010 -0.000000 0.998501 -0.054738
0.050764 0.013668 0.100388 -0.000000 0.998501 -0.054738
0.027556 0.013668 0.100388 -0.000000 0.998501 -0.054738
0.068130 0.018307 0.185010 0.979586 0.000000 -0.201026
0.050764 -0.013669 0.100388 0.979586 0.000000 -0.201026
0.050764 0.013668 0.100388 0.979586 0.000000 -0.201026
0.068130 -0.018308 0.185010 0.000000 -0.998501 -0.054738
0.027556 -0.013669 0.100388 0.000000 -0.998501 -0.054738
0.050764 -0.013669 0.100388 0.000000 -0.998501 -0.054738
0.050764 -0.013669 0.100388 0.000000 -0.000000 -1.000000
0.027556 0.013668 0.100388 0.000000 -0.000000 -1.000000
0.050764 0.013668 0.100388 0.000000 -0.000000 -1.000000
0.068130 0.018307 0.185010 0.000000 -0.000000 1.000000
0.037045 -0.018308 0.185010 0.000000 -0.000000 1.000000
0.068130 -0.018308 0.185010 0.000000 -0.000000 1.000000
-0.068938 0.018307 0.185010 -0.000000 0.998501 -0.054738
-0.028363 0.013668 0.100388 -0.000000 0.998501 -0.054738
-0.051572 0.013668 0.100388 -0.000000 0.998501 -0.054738
-0.037853 -0.018308 0.185010 0.000000 -0.998501 -0.054738
-0.051572 -0.013669 0.100388 0.000000 -0.998501 -0.054738
-0.028363 -0.013669 0.100388 0.000000 -0.998501 -0.054738
-0.068938 -0.018308 0.185010 -0.979585 0.000000 -0.201028
-0.051572 0.013668 0.100388 -0.979585 0.000000 -0.201028
-0.051572 -0.013669 0.100388 -0.979585 0.000000 -0.201028
-0.028363 -0.013669 0.100388 0.000000 -0.000000 -1.000000
-0.051572 0.013668 0.100388 0.000000 -0.000000 -1.000000
-0.028363 0.013668 0.100388 0.000000 -0.000000 -1.000000
-0.037853 0.018307 0.185010 0.000000 -0.000000 1.000000
-0.068938 -0.018308 0.185010 0.000000 -0.000000 1.000000
-0.037853 -0.018308 0.185010 0.000000 -0.000000 1.000000
-0.016116 0.015784 0.270893 -0.000000 0.982978 0.183721
0.016117 0.015784 0.270893 -0.000000 0.982978 0.183721
0.031887 0.031229 0.188257 -0.000000 0.982978 0.183721
0.016117 -0.015785 0.270893 0.982273 0.000000 0.187454
0.016117 -0.015785 0.270893 0.000000 -0.982978 0.183721
-0.016116 -0.015785 0.270893 0.000000 -0.982978 0.183721
-0.031887 -0.031230 0.188257 0.000000 -0.982978 0.183721
-0.016116 0.015784 0.270893 -0.982273 -0.000000 0.187456
-0.031887 -0.031230 0.188257 0.000000 0.000000 -1.000000
-0.016116 0.015784 0.270893 0.000000 -0.000000 1.000000
0.036537 0.020994 0.097043 -0.000000 0.998294 -0.058384
0.036537 -0.020995 0.097043 0.994939 0.000000 -0.100477
0.000889 -0.020995 0.097043 0.000000 -0.998294 -0.058384
0.000889 0.020994 0.097043 -0.999999 -0.000000 0.001686
-0.000322 0.020994 0.097043 -0.000000 0.998294 -0.058384
-0.000322 -0.020995 0.097043 0.999999 0.000000 0.001688
-0.035969 -0.020995 0.097043 0.000000 -0.998294 -0.058384
-0.035969 0.020994 0.097043 -0.994939 -0.000000 -0.100479
0.037363 0.020994 0.194034 -0.000000 1.000000 0.000000
0.037363 -0.020995 0.194034 1.000000 0.000000 0.000000
-0.037363 -0.020995 0.194034 0.000000 -1.000000 0.000000
-0.037363 0.020994 0.194034 -1.000000 0.000000 0.000000
-0.037363 -0.020995 0.096991 0.000000 0.000000 -1.000000
-0.037363 0.020994 0.194034 0.000000 0.000000 1.000000
0.068130 0.018307 0.185010 -0.000000 0.998501 -0.054738
0.068130 -0.018308 0.185010 0.979586 0.000000 -0.201026
0.037045 -0.018308 0.185010 0.000000 -0.998501 -0.054738
0.027556 -0.013669 0.100388 0.000000 0.000000 -1.000000
0.037045 0.018307 0.185010 0.000000 0.000000 1.000000
-0.037853 0.018307 0.185010 -0.000000 0.998501 -0.054738
-0.068938 -0.018308 0.185010 0.000000 -0.998501 -0.054738
-0.068938 -0.018308 0.185010 -0.979586 -0.000000 -0.201028
-0.068938 0.018307 0.185010 -0.979586 -0.000000 -0.201028
-0.051572 0.013668 0.100388 -0.979586 -0.000000 -0.201028
-0.051572 -0.013669 0.100388 0.000000 0.000000 -1.000000
-0.068938 0.018307 0.185010 0.000000 0.000000 1.000000
3 0 1 2
3 3 4 5
3 6 7 8
3 9 10 11
3 12 13 14
3 15 16 17
3 18 19 20
3 21 22 23
3 24 25 26
3 27 28 29
3 30 31 32
3 33 34 35
3 36 37 38
3 39 40 41
3 42 43 44
3 45 46 47
3 48 49 50
3 51 52 53
3 54 55 56
3 57 58 59
3 60 61 62
3 63 64 65
3 66 67 68
3 69 70 71
3 72 73 74
3 75 76 77
3 78 79 80
3 81 82 83
3 84 85 86
3 87 88 89
3 90 91 92
3 3 93 4
3 94 95 96
3 9 97 10
3 12 98 13
3 15 99 16
3 18 100 19
3 21 101 22
3 24 102 25
3 27 103 28
3 30 104 31
3 33 105 34
3 36 106 37
3 39 107 40
3 42 108 43
3 45 109 46
3 48 110 49
3 51 111 52
3 54 112 55
3 57 113 58
3 60 114 61
3 63 115 64
3 66 116 67
3 69 117 70
3 72 118 73
3 75 119 76
3 78 120 79
3 121 122 123
3 84 124 85
3 87 125 88
