ply
format ascii 1.0
comment Created by Blender 3.0.1 - www.blender.org
element vertex 16
property float x
property float y
property float z
property float nx
property float ny
property float nz
element face 8
property list uchar uint vertex_indices
end_header
-0.990000 -0.990000 9.213741 -1.000000 0.000000 0.000000
-0.990000 0.990000 0.385878 -1.000000 0.000000 0.000000
-0.990000 -0.990000 0.385878 -1.000000 0.000000 0.000000
-0.990000 0.990000 9.213741 0.000000 1.000000 -0.000000
0.990000 0.990000 0.385878 0.000000 1.000000 -0.000000
-0.990000 0.990000 0.385878 0.000000 1.000000 -0.000000
0.990000 0.990000 9.213741 1.000000 0.000000 -0.000000
0.990000 -0.990000 0.385878 1.000000 0.000000 -0.000000
0.990000 0.990000 0.385878 1.000000 0.000000 -0.000000
0.990000 -0.990000 9.213741 0.000000 -1.000000 0.000000
-0.990000 -0.990000 0.385878 0.000000 -1.000000 0.000000
0.990000 -0.990000 0.385878 0.000000 -1.000000 0.000000
-0.990000 0.990000 9.213741 -1.000000 0.000000 0.000000
0.990000 0.990000 9.213741 0.000000 1.000000 -0.000000
0.990000 -0.990000 9.213741 1.000000 0.000000 0.000000
-0.990000 -0.990000 9.213741 0.000000 -1.000000 0.000000
3 0 1 2
3 3 4 5
3 6 7 8
3 9 10 11
3 0 12 1
3 3 13 4
3 6 14 7
3 9 15 10
